<?xml version="1.0" encoding="UTF-8"?>
<svg width="639px" height="568px" viewBox="0 0 639 568" version="1.1" xmlns="http://www.w3.org/2000/svg" xmlns:xlink="http://www.w3.org/1999/xlink" style="background: #2E2A48;">
    <!-- Generator: Sketch 47.1 (45422) - http://www.bohemiancoding.com/sketch -->
    <title>Artboard Copy 7</title>
    <desc>Created with Sketch.</desc>
    <defs>
        <linearGradient x1="50%" y1="9.56742513%" x2="50%" y2="100%" id="linearGradient-1">
            <stop stop-color="#C77474" stop-opacity="0" offset="0%"></stop>
            <stop stop-color="#FAA5A5" stop-opacity="0.3" offset="49.7309471%"></stop>
            <stop stop-color="#FB60A0" offset="100%"></stop>
        </linearGradient>
        <linearGradient x1="50%" y1="9.56742513%" x2="50%" y2="100%" id="linearGradient-2">
            <stop stop-color="#FFC8C8" stop-opacity="0" offset="0%"></stop>
            <stop stop-color="#FFC8C8" stop-opacity="0.310603487" offset="49.7309471%"></stop>
            <stop stop-color="#FFC8C8" offset="100%"></stop>
        </linearGradient>
        <linearGradient x1="50%" y1="9.56742513%" x2="50%" y2="100%" id="linearGradient-3">
            <stop stop-color="#FFE7E7" stop-opacity="0" offset="0%"></stop>
            <stop stop-color="#FFE1E1" stop-opacity="0.310603487" offset="49.7309471%"></stop>
            <stop stop-color="#FEE3E3" offset="100%"></stop>
        </linearGradient>
        <linearGradient x1="50%" y1="9.56742513%" x2="50%" y2="100%" id="linearGradient-4">
            <stop stop-color="#FFFFFF" stop-opacity="0" offset="0%"></stop>
            <stop stop-color="#FFFFFF" stop-opacity="0.310603487" offset="50.0677615%"></stop>
            <stop stop-color="#FFFFFF" offset="100%"></stop>
        </linearGradient>
        <linearGradient x1="50%" y1="9.56742513%" x2="50%" y2="100%" id="linearGradient-5">
            <stop stop-color="#55E6E6" stop-opacity="0" offset="0%"></stop>
            <stop stop-color="#55E6E6" stop-opacity="0.3" offset="49.2287149%"></stop>
            <stop stop-color="#55E6E6" offset="100%"></stop>
        </linearGradient>
        <linearGradient x1="50%" y1="9.56742513%" x2="50%" y2="100%" id="linearGradient-6">
            <stop stop-color="#79E0E0" stop-opacity="0" offset="0%"></stop>
            <stop stop-color="#79E0E0" stop-opacity="0.3" offset="49.2287149%"></stop>
            <stop stop-color="#79E0E0" offset="100%"></stop>
        </linearGradient>
        <linearGradient x1="50%" y1="9.56742513%" x2="50%" y2="100%" id="linearGradient-7">
            <stop stop-color="#B0DEDE" stop-opacity="0" offset="0%"></stop>
            <stop stop-color="#B0DEDE" stop-opacity="0.3" offset="49.2287149%"></stop>
            <stop stop-color="#B0DEDE" offset="100%"></stop>
        </linearGradient>
    </defs>
    <g id="Portfolio" stroke="none" stroke-width="1" fill="none" fill-rule="evenodd">
        <g id="Artboard-Copy-7">
            <path d="" id="Path-2" stroke="#979797"></path>
            <g id="Group-6" transform="translate(152.000000, 70.000000)">
                <g id="color-shceme">
                    <rect id="Rectangle-Copy-7" fill="url(#linearGradient-1)" x="161.203125" y="0" width="9.796875" height="42.9611766" rx="4.8984375"></rect>
                    <rect id="Rectangle-Copy-8" fill="url(#linearGradient-2)" x="134.484375" y="0" width="9.796875" height="42.9611766" rx="4.8984375"></rect>
                    <rect id="Rectangle-Copy-10" fill="url(#linearGradient-3)" x="107.765625" y="0" width="9.796875" height="42.9611766" rx="4.8984375"></rect>
                    <rect id="Rectangle-Copy-21" fill="url(#linearGradient-4)" x="81.046875" y="0" width="9.796875" height="42.9611766" rx="4.8984375"></rect>
                    <rect id="Rectangle-Copy-22" fill="url(#linearGradient-5)" x="0" y="0" width="9.796875" height="42.9611766" rx="4.8984375"></rect>
                    <rect id="Rectangle-Copy-23" fill="url(#linearGradient-6)" x="26.71875" y="0" width="9.796875" height="42.9611766" rx="4.8984375"></rect>
                    <rect id="Rectangle-Copy-24" fill="url(#linearGradient-7)" x="53.4375" y="0" width="9.796875" height="42.9611766" rx="4.8984375"></rect>
                </g>
            </g>
            <g id="Group-2" transform="translate(238.000000, 459.000000) rotate(106.000000) translate(-238.000000, -459.000000) translate(171.000000, 270.000000)">
                <circle id="Oval-15-Copy-83" stroke-opacity="0.520918252" stroke="#DCDCDC" transform="translate(15.500000, 23.500000) scale(-1, 1) rotate(-2.000000) translate(-15.500000, -23.500000) " cx="15.5" cy="23.5" r="10.5"></circle>
                <circle id="Oval-15-Copy-84" stroke-opacity="0.520918252" stroke="#DCDCDC" transform="translate(23.500000, 11.500000) scale(-1, 1) rotate(-2.000000) translate(-23.500000, -11.500000) " cx="23.5" cy="11.5" r="10.5"></circle>
                <circle id="Oval-15-Copy-17" stroke-opacity="0.520918252" stroke="#DCDCDC" transform="translate(34.500000, 46.500000) rotate(-2.000000) translate(-34.500000, -46.500000) " cx="34.5" cy="46.5" r="12.5"></circle>
                <circle id="Oval-15-Copy-65" stroke="#FAA5A5" transform="translate(19.000000, 42.000000) scale(-1, 1) rotate(-2.000000) translate(-19.000000, -42.000000) " cx="19" cy="42" r="14"></circle>
                <circle id="Oval-15-Copy-80" stroke-opacity="0.520918252" stroke="#DCDCDC" transform="translate(68.000000, 255.000000) scale(-1, 1) rotate(-2.000000) translate(-68.000000, -255.000000) " cx="68" cy="255" r="13"></circle>
                <circle id="Oval-15-Copy-20" stroke-opacity="0.520918252" stroke="#DCDCDC" transform="translate(41.000000, 176.000000) scale(-1, 1) rotate(-2.000000) translate(-41.000000, -176.000000) " cx="41" cy="176" r="13"></circle>
                <circle id="Oval-15-Copy-28" stroke-opacity="0.520918252" stroke="#DCDCDC" transform="translate(39.000000, 243.000000) scale(-1, 1) rotate(-2.000000) translate(-39.000000, -243.000000) " cx="39" cy="243" r="14"></circle>
                <circle id="Oval-15-Copy-31" stroke-opacity="0.520918252" stroke="#DCDCDC" transform="translate(21.121813, 231.693692) scale(-1, 1) rotate(-2.000000) translate(-21.121813, -231.693692) " cx="21.1218132" cy="231.693692" r="4.5"></circle>
                <circle id="Oval-15-Copy-12" stroke-opacity="0.520918252" stroke="#DCDCDC" transform="translate(30.500000, 159.500000) rotate(-2.000000) translate(-30.500000, -159.500000) " cx="30.5" cy="159.5" r="4.5"></circle>
                <circle id="Oval-15-Copy-13" stroke-opacity="0.520918252" stroke="#DCDCDC" transform="translate(32.000000, 188.000000) rotate(-2.000000) translate(-32.000000, -188.000000) " cx="32" cy="188" r="14"></circle>
                <circle id="Oval-15-Copy-26" stroke-opacity="0.520918252" stroke="#DCDCDC" transform="translate(45.966809, 132.944083) rotate(-2.000000) translate(-45.966809, -132.944083) " cx="45.9668089" cy="132.944083" r="20.5"></circle>
                <circle id="Oval-15-Copy-40" stroke-opacity="0.520918252" stroke="#DCDCDC" transform="translate(88.500000, 263.500000) rotate(-2.000000) translate(-88.500000, -263.500000) " cx="88.5" cy="263.5" r="16.5"></circle>
                <circle id="Oval-15-Copy-16" stroke-opacity="0.520918252" stroke="#DCDCDC" transform="translate(17.500000, 207.500000) rotate(-2.000000) translate(-17.500000, -207.500000) " cx="17.5" cy="207.5" r="16.5"></circle>
                <circle id="Oval-15-Copy-85" stroke-opacity="0.520918252" stroke="#DCDCDC" transform="translate(90.000000, 367.000000) scale(-1, 1) rotate(-2.000000) translate(-90.000000, -367.000000) " cx="90" cy="367" r="10"></circle>
                <circle id="Oval-15-Copy-39" stroke-opacity="0.520918252" stroke="#DCDCDC" transform="translate(54.790859, 87.489137) scale(-1, 1) rotate(-2.000000) translate(-54.790859, -87.489137) " cx="54.7908589" cy="87.489137" r="7.5"></circle>
                <circle id="Oval-15-Copy-41" stroke-opacity="0.520918252" stroke="#DCDCDC" transform="translate(66.342903, 106.757177) scale(-1, 1) rotate(-2.000000) translate(-66.342903, -106.757177) " cx="66.3429032" cy="106.757177" r="7.5"></circle>
                <circle id="Oval-15-Copy-86" stroke-opacity="0.520918252" stroke="#DCDCDC" transform="translate(94.500000, 344.500000) scale(-1, 1) rotate(-2.000000) translate(-94.500000, -344.500000) " cx="94.5" cy="344.5" r="7.5"></circle>
                <circle id="Oval-15-Copy-64" stroke-opacity="0.520918252" stroke="#DCDCDC" transform="translate(56.000000, 65.000000) scale(-1, 1) rotate(-2.000000) translate(-56.000000, -65.000000) " cx="56" cy="65" r="10"></circle>
                <circle id="Oval-15-Copy-87" stroke-opacity="0.520918252" stroke="#DCDCDC" transform="translate(95.000000, 325.000000) scale(-1, 1) rotate(-2.000000) translate(-95.000000, -325.000000) " cx="95" cy="325" r="10"></circle>
                <circle id="Oval-15-Copy-81" stroke-opacity="0.520918252" stroke="#DCDCDC" transform="translate(116.500000, 298.500000) rotate(-2.000000) translate(-116.500000, -298.500000) " cx="116.5" cy="298.5" r="16.5"></circle>
            </g>
            <g id="Group" transform="translate(149.000000, 207.000000)">
                <circle id="Oval-15-Copy-27" stroke="#FAA5A5" transform="translate(90.500000, 21.500000) rotate(-2.000000) translate(-90.500000, -21.500000) " cx="90.5" cy="21.5" r="20.5"></circle>
                <text id="Roboto-Condensed" font-family="RobotoCondensed-Light, Roboto Condensed" font-size="24" font-style="condensed" font-weight="300" fill="#C3C3C3">
                    <tspan x="0" y="89">Roboto Condensed</tspan>
                </text>
                <polyline id="Line" stroke="#C3C3C3" stroke-linecap="square" points="71 45 71 49.0277236 111 49.0277236 111 45"></polyline>
                <polyline id="Line-Copy" stroke="#C3C3C3" stroke-linecap="square" transform="translate(91.500000, 66.013862) rotate(180.000000) translate(-91.500000, -66.013862) " points="87.5 64 87.5 68.0277236 95.5 68.0277236 95.5 64"></polyline>
            </g>
            <text id="Contrast" font-family="Roboto-Regular, Roboto" font-size="24" font-weight="normal" fill="#FFFFFF">
                <tspan x="513" y="107">Contrast</tspan>
            </text>
            <text id="Tension" font-family="Roboto-Regular, Roboto" font-size="24" font-weight="normal" fill="#FFFFFF">
                <tspan x="520" y="296">Tension</tspan>
            </text>
            <text id="Continuity" font-family="Roboto-Regular, Roboto" font-size="24" font-weight="normal" fill="#FFFFFF">
                <tspan x="498" y="465">Continuity</tspan>
            </text>
        </g>
    </g>
</svg>