<svg xmlns="http://www.w3.org/2000/svg" viewBox="0 0 1838.7 363.63"><defs><style>.cls-1{fill:#ed1c24;}</style></defs><title>Asset 11</title><g id="Layer_2" data-name="Layer 2"><g id="Layer_1-2" data-name="Layer 1"><rect class="cls-1" x="1354.83" width="48.39" height="45.45"/><rect class="cls-1" x="1306.45" width="48.38" height="45.45"/><rect class="cls-1" x="1112.9" y="181.82" width="48.39" height="45.45"/><rect class="cls-1" x="1064.51" y="181.82" width="48.39" height="45.45"/><rect class="cls-1" x="1016.12" y="181.82" width="48.39" height="45.45"/><rect class="cls-1" x="967.74" y="181.82" width="48.38" height="45.45"/><rect class="cls-1" x="919.35" y="181.82" width="48.39" height="45.45"/><rect class="cls-1" x="870.96" y="181.82" width="48.39" height="45.45"/><rect class="cls-1" x="822.58" y="181.82" width="48.38" height="45.45"/><rect class="cls-1" x="774.19" y="181.82" width="48.39" height="45.45"/><rect class="cls-1" x="725.8" y="181.82" width="48.39" height="45.45"/><rect class="cls-1" x="532.25" y="318.18" width="48.39" height="45.45"/><rect class="cls-1" x="532.25" y="181.82" width="48.39" height="45.45"/><rect class="cls-1" x="483.87" y="318.18" width="48.38" height="45.45"/><rect class="cls-1" x="483.87" y="181.82" width="48.38" height="45.45"/><rect class="cls-1" x="483.87" y="45.45" width="48.38" height="45.46"/><rect class="cls-1" x="435.48" y="318.18" width="48.39" height="45.45"/><rect class="cls-1" x="435.48" y="181.82" width="48.39" height="45.45"/><rect class="cls-1" x="435.48" y="45.45" width="48.39" height="45.46"/><rect class="cls-1" x="387.09" y="318.18" width="48.39" height="45.45"/><rect class="cls-1" x="387.09" y="272.72" width="48.39" height="45.46"/><rect class="cls-1" x="387.09" y="227.27" width="48.39" height="45.45"/><rect class="cls-1" x="387.09" y="181.82" width="48.39" height="45.45"/><rect class="cls-1" x="387.09" y="136.36" width="48.39" height="45.46"/><rect class="cls-1" x="387.09" y="90.91" width="48.39" height="45.45"/><rect class="cls-1" x="387.09" y="45.45" width="48.39" height="45.46"/><rect class="cls-1" x="387.09" width="48.39" height="45.45"/><rect class="cls-1" x="338.7" y="181.82" width="48.39" height="45.45"/><rect class="cls-1" x="338.7" y="45.45" width="48.39" height="45.46"/><rect class="cls-1" x="290.32" y="318.18" width="48.38" height="45.45"/><rect class="cls-1" x="290.32" y="272.72" width="48.38" height="45.46"/><rect class="cls-1" x="290.32" y="227.27" width="48.38" height="45.45"/><rect class="cls-1" x="290.32" y="181.82" width="48.38" height="45.45"/><rect class="cls-1" x="290.32" y="45.45" width="48.38" height="45.46"/><rect class="cls-1" x="290.32" width="48.38" height="45.45"/><rect class="cls-1" x="241.93" y="318.18" width="48.39" height="45.45"/><rect class="cls-1" x="241.93" y="181.82" width="48.39" height="45.45"/><rect class="cls-1" x="241.93" y="90.91" width="48.39" height="45.45"/><rect class="cls-1" x="241.93" y="45.45" width="48.39" height="45.46"/><rect class="cls-1" x="193.54" y="318.18" width="48.39" height="45.45"/><rect class="cls-1" x="193.54" y="181.82" width="48.39" height="45.45"/><rect class="cls-1" x="96.77" y="227.27" width="48.39" height="45.45"/><rect class="cls-1" x="96.77" y="136.36" width="48.39" height="45.46"/><rect class="cls-1" x="96.77" width="48.39" height="45.45"/><rect class="cls-1" x="48.38" y="272.72" width="48.39" height="45.46"/><rect class="cls-1" x="48.38" y="227.27" width="48.39" height="45.45"/><rect class="cls-1" x="48.38" y="136.36" width="48.39" height="45.46"/><rect class="cls-1" x="48.38" width="48.39" height="45.45"/><rect class="cls-1" y="318.18" width="48.38" height="45.45"/><rect class="cls-1" y="272.72" width="48.38" height="45.46"/><rect class="cls-1" y="136.36" width="48.38" height="45.46"/><rect class="cls-1" width="48.38" height="45.45"/><rect class="cls-1" x="1790.32" width="48.38" height="45.45"/><rect class="cls-1" x="1741.93" width="48.39" height="45.45"/><rect class="cls-1" x="1693.54" y="181.82" width="48.39" height="45.45"/><rect class="cls-1" x="1693.54" width="48.39" height="45.45"/><rect class="cls-1" x="1645.16" y="181.82" width="48.38" height="45.45"/><rect class="cls-1" x="1645.16" width="48.38" height="45.45"/><rect class="cls-1" x="1596.77" y="136.36" width="48.39" height="45.46"/><rect class="cls-1" x="1596.77" width="48.39" height="45.45"/><rect class="cls-1" x="1548.38" y="318.18" width="48.39" height="45.45"/><rect class="cls-1" x="1548.38" y="272.72" width="48.39" height="45.46"/><rect class="cls-1" x="1548.38" y="227.27" width="48.39" height="45.45"/><rect class="cls-1" x="1548.38" y="181.82" width="48.39" height="45.45"/><rect class="cls-1" x="1548.38" y="136.36" width="48.39" height="45.46"/><rect class="cls-1" x="1548.38" y="90.91" width="48.39" height="45.45"/><rect class="cls-1" x="1548.38" y="45.45" width="48.39" height="45.46"/><rect class="cls-1" x="1548.38" width="48.39" height="45.45"/><rect class="cls-1" x="1500" width="48.38" height="45.45"/><rect class="cls-1" x="1451.61" width="48.39" height="45.45"/><rect class="cls-1" x="1403.22" width="48.39" height="45.45"/></g></g></svg>