<?xml version="1.0" encoding="UTF-8"?>
<svg width="373px" height="280px" viewBox="0 0 373 280" version="1.1" xmlns="http://www.w3.org/2000/svg" xmlns:xlink="http://www.w3.org/1999/xlink">
    <!-- Generator: Sketch 47.1 (45422) - http://www.bohemiancoding.com/sketch -->
    <title>Group 21@2x</title>
    <desc>Created with Sketch.</desc>
    <defs></defs>
    <g id="Welcome" stroke="none" stroke-width="1" fill="none" fill-rule="evenodd">
        <g id="Taptile" transform="translate(-97.000000, -993.000000)">
            <g id="Group-21" transform="translate(97.000000, 994.000000)">
                <rect id="Rectangle-path" fill="#BCBEC0" fill-rule="nonzero" transform="translate(327.500000, 265.000000) rotate(-180.000000) translate(-327.500000, -265.000000) " x="301" y="260" width="53" height="10" rx="5"></rect>
                <g id="Asset-5">
                    <g id="shadow" transform="translate(0.000000, 257.771310)" fill-rule="nonzero" fill="#BCBEC0">
                        <rect id="Rectangle-path" x="0" y="0.0577962578" width="53.551066" height="9.8427027" rx="4.92135135"></rect>
                    </g>
                    <g id="left-leg-upper" transform="translate(21.411168, 195.929314)" fill-rule="nonzero">
                        <rect id="Rectangle-path" fill="#932346" x="0.283553299" y="0.0231185031" width="14.791066" height="40.7810395" rx="7.39553299"></rect>
                        <ellipse id="Oval" fill="#EC008C" cx="7.67908629" cy="7.40948025" rx="1" ry="1"></ellipse>
                        <ellipse id="Oval" fill="#EC008C" cx="7.67908629" cy="33.4235759" rx="1" ry="1"></ellipse>
                    </g>
                    <rect id="Rectangle-path" fill="#BCBEC0" fill-rule="nonzero" transform="translate(295.659289, 214.773784) rotate(-180.000000) translate(-295.659289, -214.773784) " x="268.883756" y="209.852432" width="53.551066" height="9.8427027" rx="4.92135135"></rect>
                    <path d="M220.586433,169.402942 L218.365277,163.37691 C217.995662,162.367779 218.136732,161.239576 218.743087,160.355381 C219.349441,159.471187 220.344556,158.942592 221.40818,158.939709 L245.482914,158.939709 C247.403286,158.941002 249.211331,159.855712 250.364577,161.409394 L259.15157,173.28858 C259.912675,174.288747 260.041729,175.641126 259.483808,176.770157 C258.925888,177.899189 257.779193,178.606152 256.531745,178.590171 L226.184073,178.590171 C224.828133,178.58777 223.615748,177.734972 223.14117,176.449777 L222.164838,173.79075" id="Shape" stroke="#FFF200" stroke-width="0.83" fill="#FFF200" fill-rule="nonzero"></path>
                    <path d="M235.422169,208.340116 L232.834263,201.468461 C232.461038,200.471606 232.603486,199.357127 233.215763,198.48369 C233.82804,197.610252 234.832875,197.088087 235.906888,197.085239 L273.698533,197.085239 C276.243377,197.085237 278.639356,198.272567 280.164191,200.289301 L292.167146,216.171364 C292.904268,217.156938 293.018802,218.469085 292.463385,219.565201 C291.907968,220.661317 290.777,221.355105 289.538162,221.359667 L242.610797,221.359667 C241.241613,221.357295 240.017386,220.514872 239.538172,219.245312 L236.983128,212.46311" id="Shape" stroke="#FFF200" stroke-width="0.83" fill="#FFF200" fill-rule="nonzero"></path>
                    <path d="M254.939292,261.318667 L250.772231,250.074213 C250.401044,249.064419 250.542714,247.935474 251.151647,247.050699 C251.760581,246.165923 252.759928,245.63698 253.828075,245.634096 L309.388887,245.634096 C312.116728,245.63474 314.684548,246.93223 316.317647,249.135116 L333.835644,272.74435 C334.56874,273.742718 334.682648,275.071896 334.130265,276.182241 C333.577881,277.292585 332.453089,277.995378 331.221017,278 L263.5839,278 C262.254532,277.997285 261.05925,277.18304 260.560738,275.940576 L257.766356,268.963248" id="Shape" stroke="#FFF200" stroke-width="0.83" fill="#FFF200" fill-rule="nonzero"></path>
                    <path d="M151.502306,169.420647 L148.912216,176.446421 C148.437123,177.73379 147.223422,178.588031 145.86601,178.590437 L115.50983,178.590437 C114.281644,178.58581 113.1604,177.88229 112.609758,176.770797 C112.059117,175.659305 112.172666,174.328752 112.90345,173.329352 L121.577808,161.594991 C122.808388,159.922967 124.747308,158.938395 126.806857,158.93971 L150.679667,158.93971 C151.744446,158.942598 152.740641,159.472088 153.347654,160.357778 C153.954666,161.243468 154.095889,162.373581 153.725874,163.384419 L153.725874,163.384419" id="Shape" fill="#B8E986" fill-rule="nonzero"></path>
                    <path d="M137.280339,208.305792 L133.171993,219.241061 C132.692714,220.513173 131.468321,221.35729 130.09895,221.359667 L83.1323339,221.359667 C81.8933277,221.355096 80.7622057,220.659913 80.2067131,219.561593 C79.6512206,218.463273 79.7657699,217.148489 80.5029923,216.160933 L92.8280313,199.863961 C93.9650532,198.345434 95.7523475,197.441119 97.6594467,197.419415 L136.729821,197.085327 C137.809783,197.077476 138.824715,197.596285 139.44482,198.473169 C140.064924,199.350052 140.211056,200.473092 139.83573,201.477361 L139.605663,202.096646" id="Shape" fill="#B8E986" fill-rule="nonzero"></path>
                    <path d="M117.14995,261.335143 L111.77918,275.858199 C111.302352,277.144239 110.084218,277.997597 108.721847,278 L40.8719395,278 C39.6392673,277.995378 38.5139277,277.292585 37.9612749,276.182241 C37.4086222,275.071896 37.5225859,273.742718 38.2560395,272.74435 L56.3956713,248.303109 C57.6427478,246.623199 59.6027979,245.634094 61.6846942,245.634096 L118.261707,245.634096 C119.330375,245.63698 120.330209,246.165923 120.939439,247.050699 C121.548669,247.935474 121.690408,249.064419 121.319041,250.074213 L120.419825,252.545522" id="Shape" fill="#B8E986" fill-rule="nonzero"></path>
                    <path d="M200.604505,123.603204 L276.536058,123.603204 C279.656007,123.603576 282.645628,122.354614 284.83479,120.136277 C287.023952,117.917939 288.229551,114.915771 288.181349,111.802713 L286.611198,11.4250948 C286.50408,5.0836362 281.321548,-0.000900852495 274.965906,0 L96.6882692,0 C93.5711351,0.00614741438 90.5865896,1.25911101 88.4025102,3.47850433 C86.2184309,5.69789766 85.0171582,8.69843185 85.0675113,11.8086516 L86.637663,112.18627 C86.7447805,118.527729 91.9273122,123.612266 98.2829545,123.611365 L174.018239,123.611365 C180.449756,123.611365 185.66353,128.814243 185.66353,135.232319 L185.66353,157.57654 C185.66353,162.236856 189.449375,166.014788 194.119451,166.014788 L221.245457,166.014788 L219.012897,160.041096 C218.641385,159.04073 218.78318,157.922325 219.392647,157.045811 C220.002114,156.169297 221.002338,155.645292 222.071422,155.642434 L245.484673,155.642434 C247.918891,155.643073 250.210224,156.789369 251.667145,158.735371 L260.024932,169.882999 C260.782844,170.878036 260.904873,172.21758 260.339188,173.33269 C259.773503,174.447799 258.619426,175.142689 257.367123,175.122221 L226.863656,175.122221 C225.500754,175.119841 224.282145,174.27445 223.805131,173.000418 L222.823786,170.364485" id="Shape" stroke="#231F20" stroke-width="0.83" stroke-linecap="round"></path>
                    <path d="M185.756345,170.49896 L185.756345,195.959241 C185.756345,201.171317 189.996219,205.39654 195.226369,205.39654 L236.107355,205.39654 L233.524621,198.492196 C233.149232,197.490997 233.288794,196.370143 233.898342,195.490735 C234.507891,194.611328 235.510404,194.08449 236.582906,194.079952 L274.536793,194.079952 C276.93719,194.078664 279.19776,195.205043 280.636964,197.119497 L292.747116,213.25687 C293.482764,214.247133 293.597069,215.565521 293.042762,216.666852 C292.488456,217.768182 291.359748,218.46527 290.123386,218.469854 L243.273416,218.469854 C241.906968,218.467471 240.685187,217.62104 240.206932,216.345441 L237.656995,209.530976" id="Shape" stroke="#231F20" stroke-width="0.83"></path>
                    <path d="M185.756345,212.112266 L185.756345,245.940436 C185.756345,252.595134 191.167705,257.989833 197.842955,257.989833 L255.875071,257.989833 L251.687778,246.839035 C251.315519,245.837652 251.457598,244.71811 252.06829,243.840704 C252.678983,242.963298 253.681217,242.438761 254.75245,242.4359 L310.162386,242.4359 C313.091549,242.436539 315.84894,243.814018 317.602821,246.152832 L334.991151,269.32035 C335.726365,270.310402 335.840602,271.628509 335.286623,272.729605 C334.732643,273.830701 333.604602,274.527641 332.368971,274.532225 L264.536458,274.532225 C263.20325,274.529532 262.004514,273.722069 261.504563,272.489954 L258.702108,265.570741" id="Shape" stroke="#231F20" stroke-width="0.83"></path>
                    <path d="M179.969543,165.949022 L150.378294,165.949022 L147.786003,172.977745 C147.310506,174.265655 146.095773,175.120255 144.737207,175.122661 L114.355228,175.122661 C113.125998,175.118033 112.003801,174.414217 111.452692,173.302258 C110.901582,172.190299 111.015228,170.859187 111.746633,169.859368 L120.289781,158.309822 C121.607784,156.524901 123.680147,155.47323 125.881957,155.471933 L149.522349,155.471933 C150.588032,155.474822 151.585074,156.004535 152.192603,156.890597 C152.800131,157.776659 152.941474,158.907246 152.571144,159.918509 L152.571144,159.918509" id="Shape" stroke="#231F20" stroke-width="0.83"></path>
                    <path d="M178.812183,204.846775 L136.054365,204.846775 L131.950928,215.774707 C131.472222,217.045966 130.249292,217.889517 128.881557,217.891892 L81.9710609,217.891892 C80.7335352,217.887323 79.6037647,217.192607 79.0489359,216.095024 C78.4941071,214.997441 78.6085195,213.683538 79.344861,212.696646 L91.13814,197.045763 C92.5932178,195.11634 94.8728994,193.971814 97.3015029,193.951415 L135.488091,193.617551 C136.566763,193.609706 137.580482,194.128167 138.199846,195.004462 C138.81921,195.880757 138.965167,197.003044 138.59029,198.006639 L138.360497,198.625508" id="Shape" stroke="#231F20" stroke-width="0.83"></path>
                    <path d="M175.918782,258.44533 L116.135978,258.44533 L110.755526,272.968386 C110.277838,274.254426 109.057508,275.107784 107.692681,275.110187 L39.7204522,275.110187 C38.4855577,275.105565 37.3581894,274.402772 36.8045402,273.292428 C36.2508911,272.182083 36.3650603,270.852905 37.0998361,269.854538 L55.1165715,245.652189 C56.4689492,243.832947 58.5909071,242.756566 60.8491691,242.744283 L117.233361,242.744283 C118.303956,242.747167 119.305592,243.276111 119.91592,244.160886 C120.526249,245.045661 120.668243,246.174606 120.296206,247.1844 L119.395369,249.655709" id="Shape" stroke="#231F20" stroke-width="0.83"></path>
                    <g id="right-leg-lower" transform="translate(49.766497, 217.891892)" fill-rule="nonzero">
                        <rect id="Rectangle-path" fill="#C43362" x="0.0925888325" y="0.190727651" width="14.791066" height="40.7810395" rx="7.39553299"></rect>
                        <ellipse id="Oval" fill="#EC008C" cx="1.24994924" cy="9.79068607" rx="1" ry="1"></ellipse>
                    </g>
                    <g id="left-arm-lower" transform="translate(1.157360, 159.517672)" fill-rule="nonzero">
                        <rect id="Rectangle-path" fill="#F4C7A2" transform="translate(7.941949, 15.260796) rotate(178.520000) translate(-7.941949, -15.260796) " x="0.546416247" y="0.447614795" width="14.791066" height="29.6263617" rx="7.39553299"></rect>
                        <ellipse id="Oval" fill="#EC008C" transform="translate(10.443302, 18.039790) rotate(-1.480000) translate(-10.443302, -18.039790) " cx="10.4433023" cy="18.0397898" rx="1" ry="1"></ellipse>
                    </g>
                    <g id="left-arm-upper" transform="translate(0.000000, 172.810811)" fill-rule="nonzero">
                        <rect id="Rectangle-path" fill="#F4C7A2" transform="translate(16.483946, 10.727028) rotate(101.860000) translate(-16.483946, -10.727028) " x="9.08841257" y="-4.08615256" width="14.791066" height="29.6263617" rx="7.39553299"></rect>
                        <ellipse id="Oval" fill="#EC008C" transform="translate(26.061254, 7.628032) rotate(-78.140000) translate(-26.061254, -7.628032) " cx="26.0612537" cy="7.62803169" rx="1" ry="1"></ellipse>
                    </g>
                    <g id="head" transform="translate(28.934010, 147.958420)" fill-rule="nonzero" fill="#F4C7A2">
                        <rect id="Rectangle-path" x="0" y="0" width="23.1472081" height="31.2099792" rx="11.5736041"></rect>
                    </g>
                    <g id="left-leg-lower" transform="translate(21.411168, 221.937630)" fill-rule="nonzero" fill="#932346">
                        <rect id="Rectangle-path" x="0.283553299" y="0.0288981289" width="14.791066" height="40.7810395" rx="7.39553299"></rect>
                    </g>
                    <g id="right-leg-upper" transform="translate(27.197970, 196.507277)" fill-rule="nonzero">
                        <rect id="Rectangle-path" fill="#C43362" transform="translate(20.347151, 19.251075) rotate(-47.370000) translate(-20.347151, -19.251075) " x="12.9516181" y="-1.13944489" width="14.791066" height="40.7810395" rx="7.39553299"></rect>
                        <ellipse id="Oval" fill="#EC008C" transform="translate(16.246874, 6.914915) rotate(-18.370000) translate(-16.246874, -6.914915) " cx="16.2468736" cy="6.91491468" rx="1" ry="1"></ellipse>
                    </g>
                    <g id="body" transform="translate(13.309645, 169.920998)" fill-rule="nonzero" fill="#C43362">
                        <ellipse id="Oval" cx="23.5479442" cy="23.5187422" rx="23.5479442" ry="23.5187422"></ellipse>
                    </g>
                    <g id="right-arm-lower" transform="translate(53.238579, 167.031185)" fill-rule="nonzero">
                        <rect id="Rectangle-path" fill="#F4C7A2" transform="translate(16.640181, 13.581587) rotate(-118.190000) translate(-16.640181, -13.581587) " x="9.24464762" y="-1.23159378" width="14.791066" height="29.6263617" rx="7.39553299"></rect>
                        <ellipse id="Oval" fill="#EC008C" transform="translate(12.414998, 12.463580) rotate(-28.190000) translate(-12.414998, -12.463580) " cx="12.4149979" cy="12.4635803" rx="1" ry="1"></ellipse>
                    </g>
                    <g id="right-arm-upper" transform="translate(40.507614, 176.278586)" fill-rule="nonzero" fill="#F4C7A2">
                        <rect id="Rectangle-path" transform="translate(15.608875, 8.445595) rotate(-94.120000) translate(-15.608875, -8.445595) " x="8.21334185" y="-6.3675858" width="14.791066" height="29.6263617" rx="7.39553299"></rect>
                    </g>
                    <rect id="Rectangle-path" fill="#F2A769" fill-rule="nonzero" transform="translate(333.030213, 121.104444) rotate(1.480000) translate(-333.030213, -121.104444) " x="325.63468" y="106.291263" width="14.791066" height="29.6263617" rx="7.39553299"></rect>
                    <ellipse id="Oval" fill="#EC008C" fill-rule="nonzero" transform="translate(332.836035, 128.510803) rotate(-88.520000) translate(-332.836035, -128.510803) " cx="332.836035" cy="128.510803" rx="1" ry="1"></ellipse>
                    <rect id="Rectangle-path" fill="#F2A769" fill-rule="nonzero" transform="translate(325.647279, 129.970129) rotate(78.140000) translate(-325.647279, -129.970129) " x="318.251746" y="115.156948" width="14.791066" height="29.6263617" rx="7.39553299"></rect>
                    <ellipse id="Oval" fill="#EC008C" fill-rule="nonzero" transform="translate(318.387906, 131.491992) rotate(-11.860000) translate(-318.387906, -131.491992) " cx="318.387906" cy="131.491992" rx="1" ry="1"></ellipse>
                    <rect id="Rectangle-path" fill="#F2A769" fill-rule="nonzero" transform="translate(301.153858, 116.300520) rotate(-180.000000) translate(-301.153858, -116.300520) " x="290.55533" y="102.299376" width="21.1970558" height="28.0022869" rx="10.5985279"></rect>
                    <rect id="Rectangle-path" fill="#2BB673" fill-rule="nonzero" transform="translate(310.710761, 194.386154) rotate(180.000000) translate(-310.710761, -194.386154) " x="303.315228" y="173.995634" width="14.791066" height="40.7810395" rx="7.39553299"></rect>
                    <ellipse id="Oval" fill="#2BB673" fill-rule="nonzero" cx="310.704975" cy="181.381996" rx="1" ry="1"></ellipse>
                    <ellipse id="Oval" fill="#2BB673" fill-rule="nonzero" cx="310.704975" cy="207.390312" rx="1" ry="1"></ellipse>
                    <rect id="Rectangle-path" fill="#2BB673" fill-rule="nonzero" transform="translate(310.710761, 168.377838) rotate(-180.000000) translate(-310.710761, -168.377838) " x="303.315228" y="147.987318" width="14.791066" height="40.7810395" rx="7.39553299"></rect>
                    <ellipse id="Oval" fill="#2BB673" fill-rule="nonzero" cx="310.704975" cy="155.3679" rx="1" ry="1"></ellipse>
                    <ellipse id="Oval" fill="#2BB673" fill-rule="nonzero" cx="310.704975" cy="181.381996" rx="1" ry="1"></ellipse>
                    <rect id="Rectangle-path" fill="#006838" fill-rule="nonzero" transform="translate(278.489848, 188.184615) rotate(-180.000000) translate(-278.489848, -188.184615) " x="271.094315" y="167.794096" width="14.791066" height="40.7810395" rx="7.39553299"></rect>
                    <ellipse id="Oval" fill="#006838" fill-rule="nonzero" cx="278.495635" cy="176.145655" rx="1" ry="1"></ellipse>
                    <ellipse id="Oval" fill="#006838" fill-rule="nonzero" cx="278.495635" cy="201.223451" rx="1" ry="1"></ellipse>
                    <rect id="Rectangle-path" fill="#006838" fill-rule="nonzero" transform="translate(288.204454, 166.060598) rotate(-132.630000) translate(-288.204454, -166.060598) " x="280.808921" y="145.670078" width="14.791066" height="40.7810395" rx="7.39553299"></rect>
                    <ellipse id="Oval" fill="#006838" fill-rule="nonzero" transform="translate(292.309778, 153.718759) rotate(-71.630000) translate(-292.309778, -153.718759) " cx="292.309778" cy="153.718759" rx="1" ry="1"></ellipse>
                    <ellipse id="Oval" fill="#006838" fill-rule="nonzero" transform="translate(278.492071, 174.988482) rotate(-71.630000) translate(-278.492071, -174.988482) " cx="278.492071" cy="174.988482" rx="1" ry="1"></ellipse>
                    <ellipse id="Oval" fill="#006838" fill-rule="nonzero" cx="304.860305" cy="138.930644" rx="18.3817766" ry="18.3589813"></ellipse>
                    <rect id="Rectangle-path" fill="#F2A769" fill-rule="nonzero" transform="translate(267.410458, 128.028689) rotate(-61.810000) translate(-267.410458, -128.028689) " x="260.014925" y="113.215508" width="14.791066" height="29.6263617" rx="7.39553299"></rect>
                    <ellipse id="Oval" fill="#EC008C" fill-rule="nonzero" transform="translate(273.949130, 131.527134) rotate(-61.810000) translate(-273.949130, -131.527134) " cx="273.94913" cy="131.527134" rx="1" ry="1"></ellipse>
                    <rect id="Rectangle-path" fill="#F2A769" fill-rule="nonzero" transform="translate(281.361604, 132.129681) rotate(-85.880000) translate(-281.361604, -132.129681) " x="273.966071" y="117.3165" width="14.791066" height="29.6263617" rx="7.39553299"></rect>
                </g>
                <rect id="Rectangle-9" fill="#4C94E8" x="92" y="8" width="188" height="104" rx="18"></rect>
                <g id="figure-3" transform="translate(283.000000, 149.000000)" fill-rule="nonzero">
                    <rect id="Rectangle-path" fill="#F4C7A2" transform="translate(82.072542, 25.149914) rotate(1.480000) translate(-82.072542, -25.149914) " x="74.7119095" y="10.344234" width="14.7212658" height="29.6113592" rx="7.36063291"></rect>
                    <ellipse id="Oval" fill="#EC008C" transform="translate(81.879280, 32.552523) rotate(-88.520000) translate(-81.879280, -32.552523) " cx="81.8792803" cy="32.5525227" rx="1" ry="1"></ellipse>
                    <rect id="Rectangle-path" fill="#F4C7A2" transform="translate(74.724449, 34.011109) rotate(78.140000) translate(-74.724449, -34.011109) " x="67.3638158" y="19.2054293" width="14.7212658" height="29.6113592" rx="7.36063291"></rect>
                    <ellipse id="Oval" fill="#EC008C" transform="translate(67.499333, 35.532202) rotate(-11.860000) translate(-67.499333, -35.532202) " cx="67.499333" cy="35.5322019" rx="1" ry="1"></ellipse>
                    <rect id="Rectangle-path" fill="#F4C7A2" transform="translate(48.618766, 13.994053) rotate(-180.000000) translate(-48.618766, -13.994053) " x="38.0702532" y="-1.0658141e-14" width="21.0970253" height="27.9881068" rx="10.5485127"></rect>
                    <rect id="Rectangle-path" fill="#A97C50" transform="translate(59.858418, 98.394515) rotate(180.000000) translate(-59.858418, -98.394515) " x="52.4977848" y="78.0143204" width="14.7212658" height="40.7603883" rx="7.36063291"></rect>
                    <ellipse id="Oval" fill="#A97C50" cx="59.8526582" cy="85.3969417" rx="1" ry="1"></ellipse>
                    <ellipse id="Oval" fill="#A97C50" cx="59.8526582" cy="111.392087" rx="1" ry="1"></ellipse>
                    <rect id="Rectangle-path" fill="#A97C50" transform="translate(59.858418, 72.399369) rotate(-180.000000) translate(-59.858418, -72.399369) " x="52.4977848" y="52.0191748" width="14.7212658" height="40.7603883" rx="7.36063291"></rect>
                    <ellipse id="Oval" fill="#A97C50" cx="59.8526582" cy="59.3960194" rx="1" ry="1"></ellipse>
                    <ellipse id="Oval" fill="#A97C50" cx="59.8526582" cy="85.3969417" rx="1" ry="1"></ellipse>
                    <rect id="Rectangle-path" fill="#726658" transform="translate(27.789557, 92.196117) rotate(-180.000000) translate(-27.789557, -92.196117) " x="20.4289241" y="71.8159223" width="14.7212658" height="40.7603883" rx="7.36063291"></rect>
                    <ellipse id="Oval" fill="#726658" cx="27.7953165" cy="80.1632524" rx="1" ry="1"></ellipse>
                    <ellipse id="Oval" fill="#726658" cx="27.7953165" cy="105.22835" rx="1" ry="1"></ellipse>
                    <rect id="Rectangle-path" fill="#726658" transform="translate(37.458319, 70.083303) rotate(-132.630000) translate(-37.458319, -70.083303) " x="30.0976861" y="49.7031086" width="14.7212658" height="40.7603883" rx="7.36063291"></rect>
                    <ellipse id="Oval" fill="#726658" transform="translate(41.544270, 57.747713) rotate(-71.630000) translate(-41.544270, -57.747713) " cx="41.5442697" cy="57.7477129" rx="1" ry="1"></ellipse>
                    <ellipse id="Oval" fill="#726658" transform="translate(27.791769, 79.006665) rotate(-71.630000) translate(-27.791769, -79.006665) " cx="27.7917694" cy="79.0066654" rx="1" ry="1"></ellipse>
                    <ellipse id="Oval" fill="#726658" cx="50.5798734" cy="42.9670874" rx="24.138038" ry="24.2101456"></ellipse>
                    <rect id="Rectangle-path" fill="#F4C7A2" transform="translate(16.762451, 32.070652) rotate(-61.810000) translate(-16.762451, -32.070652) " x="9.40181833" y="17.2649728" width="14.7212658" height="29.6113592" rx="7.36063291"></rect>
                    <ellipse id="Oval" fill="#EC008C" transform="translate(23.270267, 35.567326) rotate(-61.810000) translate(-23.270267, -35.567326) " cx="23.2702667" cy="35.5673256" rx="1" ry="1"></ellipse>
                    <rect id="Rectangle-path" fill="#F4C7A2" transform="translate(30.647761, 36.169568) rotate(-85.880000) translate(-30.647761, -36.169568) " x="23.2871283" y="21.3638884" width="14.7212658" height="29.6113592" rx="7.36063291"></rect>
                </g>
                <g id="Asset-4" transform="translate(157.000000, 32.000000)" fill-rule="nonzero" fill="#F7B11D">
                    <polygon id="Shape" points="28.8038979 0 0 13.8425067 0 23.341272 7.19610211 28 7.19610211 18.5012347 36 4.65872798"></polygon>
                    <polygon id="Shape" points="11 41.3966598 18 46 18 23 11 26.4175853"></polygon>
                    <polygon id="Shape" points="22 24.8425067 22 34.341272 29.1961021 39 29.1961021 29.5027712 58 15.6602645 50.8023987 11"></polygon>
                    <polygon id="Shape" points="33 52.3954455 40 57 40 34 33 37.4173597"></polygon>
                </g>
            </g>
        </g>
    </g>
</svg>