<?xml version="1.0" encoding="UTF-8"?>
<svg width="356px" height="167px" viewBox="0 0 356 167" version="1.1" xmlns="http://www.w3.org/2000/svg" xmlns:xlink="http://www.w3.org/1999/xlink">
    <!-- Generator: Sketch 47.1 (45422) - http://www.bohemiancoding.com/sketch -->
    <title>Artboard Copy 2</title>
    <desc>Created with Sketch.</desc>
    <defs></defs>
    <g id="Welcome" stroke="none" stroke-width="1" fill="none" fill-rule="evenodd">
        <g id="Artboard-Copy-2">
            <g id="Group-21" transform="translate(49.000000, -530.000000)">
                <g id="Asset-5">
                    <g id="shadow" transform="translate(0.000000, 608.266112)" fill-rule="nonzero" fill="#BCBEC0">
                        <rect id="Rectangle-path" x="0" y="0.136382536" width="126.205144" height="23.2259459" rx="8.51"></rect>
                    </g>
                    <g id="left-leg-upper" transform="translate(50.460237, 462.336798)" fill-rule="nonzero">
                        <rect id="Rectangle-path" fill="#932346" x="0.668257191" y="0.0545530146" width="34.8584772" height="96.2315177" rx="12.78"></rect>
                        <ellipse id="Oval" fill="#EC008C" cx="18.0974958" cy="78.8700208" rx="1.36379019" ry="1.36382536"></ellipse>
                    </g>
                    <path d="M276.090233,616.675732 L263.432805,650.945967 C262.309051,653.98065 259.438244,655.99433 256.227511,656 L96.3239276,656 C93.418858,655.989094 90.766742,654.330703 89.4642913,651.710611 C88.1618405,649.090518 88.4304217,645.954039 90.1589702,643.59818 L132.909097,585.923883 C135.848113,581.959778 140.467413,579.625775 145.37387,579.62578 L278.71034,579.62578 C281.228896,579.632587 283.58523,580.88074 285.021017,582.968555 C286.456805,585.05637 286.790844,587.720356 285.915634,590.10318 L283.79643,595.934757" id="Shape" fill="#B8E986" fill-rule="nonzero"></path>
                    <path d="M414.592217,609.856605 L273.70058,609.856605 L261.020333,644.12684 C259.894554,647.161523 257.018571,649.175203 253.802049,649.180873 L93.6101885,649.180873 C90.6998816,649.169967 88.0429843,647.511577 86.7381855,644.891484 C85.4333867,642.271391 85.702452,639.134912 87.4341168,636.779053 L129.89461,579.668475 C133.081793,575.375586 138.082664,572.835638 143.404767,572.806653 L276.28681,572.806653 C278.809907,572.81346 281.170489,574.061613 282.608865,576.149428 C284.047241,578.237243 284.381882,580.901229 283.505094,583.284053 L281.382069,589.11563" id="Shape" stroke="#231F20" stroke-width="0.83"></path>
                    <g id="right-leg-lower" transform="translate(117.285956, 514.162162)" fill-rule="nonzero">
                        <rect id="Rectangle-path" fill="#C43362" x="0.21820643" y="0.45006237" width="34.8584772" height="96.2315177" rx="12.78"></rect>
                        <ellipse id="Oval" fill="#EC008C" cx="2.9457868" cy="23.1032017" rx="1.36379019" ry="1.36382536"></ellipse>
                    </g>
                    <g id="left-leg-lower" transform="translate(50.460237, 523.708940)" fill-rule="nonzero" fill="#932346">
                        <rect id="Rectangle-path" x="0.668257191" y="0.0681912682" width="34.8584772" height="96.2315177" rx="12.78"></rect>
                    </g>
                    <g id="right-leg-upper" transform="translate(64.098139, 463.095021)" fill-rule="nonzero" fill="#C43362">
                        <rect id="Rectangle-path" transform="translate(47.952643, 46.032599) rotate(-47.370000) translate(-47.952643, -46.032599) " x="30.5234041" y="-2.08315982" width="34.8584772" height="96.2315177" rx="12.78"></rect>
                    </g>
                </g>
            </g>
        </g>
    </g>
</svg>