<?xml version="1.0" encoding="UTF-8"?>
<svg width="576px" height="370px" viewBox="0 0 576 370" version="1.1" xmlns="http://www.w3.org/2000/svg" xmlns:xlink="http://www.w3.org/1999/xlink">
    <!-- Generator: Sketch 47.1 (45422) - http://www.bohemiancoding.com/sketch -->
    <title>Group 25</title>
    <desc>Created with Sketch.</desc>
    <defs></defs>
    <g id="Welcome" stroke="none" stroke-width="1" fill="none" fill-rule="evenodd">
        <g id="Taptile" transform="translate(-196.000000, -7008.000000)">
            <g id="Group-25" transform="translate(196.000000, 7009.000000)">
                <g id="taptile" transform="translate(158.000000, 0.000000)" stroke-linecap="round">
                    <g id="Group-2" transform="translate(0.000000, 5.000000)" stroke="#CAC22F">
                        <path d="M180.931964,186.568218 L155.535972,176.729505 C154.512625,176.325209 153.283329,176.273186 152.198785,176.588279 L135.646338,181.295798 C134.500606,181.621456 133.202666,181.538233 132.158978,181.07219 L109.916627,171.174633 C108.683631,170.624331 107.999742,169.628477 108.151937,168.604955 C108.304132,167.581434 109.266079,166.707325 110.634122,166.349426 L133.076704,160.465028 C134.068765,160.207599 135.167443,160.250176 136.113544,160.582716 L160.808727,169.256319 C162.158242,169.732821 162.986524,170.722945 162.925343,171.786511 C162.864162,172.850076 161.924877,173.789618 160.525066,174.187445 L157.888689,175.01126" id="Shape"></path>
                        <path d="M292.015417,109.988793 L412.603132,122.815684 C413.708757,122.930622 414.829434,122.695079 415.673572,122.17034 C416.517709,121.645602 417.001839,120.883555 416.999995,120.082477 L416.999995,2.75838258 C417.000471,1.9621181 416.520841,1.20458615 415.684532,0.680730433 C414.848222,0.156874716 413.736906,-0.0821467599 412.636568,0.0251759275 L170.357742,23.4372487 C168.444691,23.6177152 167.014415,24.7868789 167.014121,26.1704554 L167.014121,93.2059449 C167.015189,94.5339183 168.336274,95.6726768 170.157125,95.9151761 L266.938254,108.790018 C268.798159,109.013412 270.157645,110.171013 270.148131,111.523225 L270.148131,165.048522 C270.151521,166.165963 269.213971,167.174371 267.77416,167.601912 L196.003321,188.904141 C194.637276,189.309454 193.716265,190.240452 193.634259,191.298889 C193.552254,192.357327 194.323778,193.355749 195.618804,193.867069 L257.475805,218.238162 C258.609082,218.672921 259.970357,218.672921 261.103634,218.238162 L275.798852,212.771748 C276.891763,212.374456 278.183307,212.374456 279.276218,212.771748 L344.476841,236.039968 C347.330315,237.060851 349.16316,239.129044 349.240233,241.415007 C349.317306,243.70097 347.625981,245.830255 344.844639,246.948819 L318.246129,257.617915 C311.715092,260.23559 303.710914,260.083826 297.38193,257.22232 L237.932336,230.321812 C236.771636,229.774102 236.113317,228.819982 236.210343,227.826081 C236.30737,226.832181 237.144647,225.95313 238.400443,225.526713 L241.827656,224.411852 L247.827815,222.065176" id="Shape"></path>
                        <path d="M50.2682024,225.704655 L36.9923959,212.441267 C35.980194,211.426515 34.1571413,211.031107 32.5450008,211.476657 L17.2778234,215.696826 C15.5315615,216.174078 13.5663759,215.664118 12.6312911,214.491063 L0.533712529,199.515493 C-0.0437825804,198.807797 -0.158999726,197.950324 0.219202135,197.174833 C0.597403995,196.399342 1.42997764,195.785898 2.49189398,195.500304 L29.9728133,188.338074 C31.4624951,187.951748 33.1257737,188.273062 34.1546923,189.145935 L49.9363072,202.529899 C50.7360559,203.208704 51.0366634,204.125914 50.7438179,204.993767 C50.4509725,205.861619 49.6005553,206.57378 48.4593737,206.906817 L39.8964786,209.402746" id="Shape"></path>
                        <path d="M117.601041,210.693419 L59.1414919,228.000205 C58.0472061,228.317576 57.2174883,228.97763 56.8914212,229.790174 C56.5653541,230.602718 56.7791557,231.477497 57.471219,232.162445 L95.8874944,269.993379 C96.9728544,271.068085 98.9745548,271.435229 100.647772,270.866493 L120.540722,264.084912 C122.105309,263.553914 123.972598,263.837991 125.100566,264.778619 L171.183394,303.2913 C173.448641,305.196502 174.405138,307.727356 173.790872,310.190586 C173.176606,312.653816 171.055972,314.791195 168.009876,316.017229 L126.520298,332.66619 C119.577056,335.44772 110.802218,333.741296 106.777673,328.826882 L70.4325363,284.501417 C69.8886926,283.835922 69.7598577,283.037535 70.077419,282.300763 C70.3949804,281.563991 71.1297826,280.956477 72.1028091,280.626228 L90.2419722,274.442671" id="Shape"></path>
                        <path d="M178.963333,193.001605 L132.990522,206.547757 C131.73725,206.917562 130.849642,207.729797 130.653951,208.685913 C130.458259,209.642028 130.98336,210.600949 132.036243,211.210209 L183.935629,241.140527 C185.089507,241.807611 186.679351,241.942197 188.020612,241.486336 L205.448761,235.524121 C206.715982,235.095176 208.210468,235.191115 209.349586,235.774534 L265.886432,264.774747 C268.8515,266.29504 270.519935,268.789275 270.309574,271.387146 C270.099214,273.985016 268.039244,276.326092 264.848444,277.593508 L231.431937,290.936945 C223.797449,293.957025 214.290117,293.076708 207.993505,288.766699 L159.325275,255.378296 C158.417885,254.753338 157.998147,253.851307 158.201866,252.964055 C158.405584,252.076802 159.20689,251.317002 160.346521,250.930484 L177.473318,245.123287" id="Shape"></path>
                        <path d="M121.513479,205.332263 L101.248112,193.629303 C100.168284,193.001757 98.6963709,192.842503 97.4046804,193.213462 L79.5019426,198.358012 C78.1043318,198.756889 76.5090783,198.533708 75.4255757,197.787715 L57.3730938,185.348122 C56.4277634,184.695221 56.0181636,183.741422 56.288417,182.822331 C56.5586704,181.90324 57.4709098,181.147638 58.7041523,180.821393 L85.1423033,173.870903 C86.3355856,173.555994 87.6700058,173.685125 88.702885,174.215458 L109.866716,185.122379 C110.998108,185.705336 111.59556,186.681783 111.42592,187.670666 C111.25628,188.659549 110.346433,189.504143 109.051443,189.87485 L104.209717,191.264948" id="Shape"></path>
                    </g>
                    <g id="Group" stroke="#231F20" stroke-width="0.5">
                        <path d="M180.931964,187.859425 L155.535972,178.00923 C154.512625,177.604462 153.283329,177.552379 152.198785,177.867839 L135.646338,182.580851 C134.500606,182.90689 133.202666,182.82357 132.158978,182.356983 L109.916627,172.447875 C108.683631,171.896931 107.999742,170.899915 108.151937,169.875199 C108.304132,168.850483 109.266079,167.975354 110.634122,167.617038 L133.076704,161.725773 C134.068765,161.468043 135.167443,161.51067 136.113544,161.843598 L160.808727,170.527323 C162.158242,171.004381 162.986524,171.99566 162.925343,173.060467 C162.864162,174.125274 161.924877,175.065913 160.525066,175.464203 L157.888689,176.28898" id="Shape"></path>
                        <path d="M292.015417,110.117149 L412.603132,122.959009 C413.708757,123.074082 414.829434,122.838264 415.673572,122.312913 C416.517709,121.787562 417.001839,121.024625 416.999995,120.222613 L416.999995,2.7616016 C417.000471,1.96440788 416.520841,1.2059919 415.684532,0.681524842 C414.848222,0.157057788 413.736906,-0.0822426247 412.636568,0.0252053077 L170.357742,23.4645999 C168.444691,23.645277 167.014415,24.815805 167.014121,26.2009962 L167.014121,93.3147158 C167.015189,94.644239 168.336274,95.7843263 170.157125,96.0271086 L266.938254,108.916975 C268.798159,109.140631 270.157645,110.299582 270.148131,111.653372 L270.148131,165.241132 C270.151521,166.359877 269.213971,167.369463 267.77416,167.797503 L196.003321,189.124591 C194.637276,189.530378 193.716265,190.462462 193.634259,191.522134 C193.552254,192.581807 194.323778,193.581394 195.618804,194.093311 L257.475805,218.492845 C258.609082,218.928111 259.970357,218.928111 261.103634,218.492845 L275.798852,213.020052 C276.891763,212.622296 278.183307,212.622296 279.276218,213.020052 L344.476841,236.315426 C347.330315,237.3375 349.16316,239.408106 349.240233,241.696737 C349.317306,243.985368 347.625981,246.117138 344.844639,247.237007 L318.246129,257.918554 C311.715092,260.539283 303.710914,260.387343 297.38193,257.522497 L237.932336,230.590597 C236.771636,230.042248 236.113317,229.087014 236.210343,228.091953 C236.30737,227.096893 237.144647,226.216816 238.400443,225.789901 L241.827656,224.67374 L249.012137,222.398663" id="Shape"></path>
                        <path d="M50.2682024,227.041534 L36.9923959,213.762667 C35.980194,212.746731 34.1571413,212.350862 32.5450008,212.796932 L17.2778234,217.022025 C15.5315615,217.499835 13.5663759,216.989279 12.6312911,215.814856 L0.533712529,200.821809 C-0.0437825804,200.113287 -0.158999726,199.254814 0.219202135,198.478418 C0.597403995,197.702022 1.42997764,197.087862 2.49189398,196.801934 L29.9728133,189.631346 C31.4624951,189.244569 33.1257737,189.566258 34.1546923,190.44015 L49.9363072,203.839733 C50.7360559,204.51933 51.0366634,205.43761 50.7438179,206.306476 C50.4509725,207.175341 49.6005553,207.888333 48.4593737,208.221759 L39.8964786,210.7206" id="Shape"></path>
                        <path d="M118.136343,212.549521 L59.6767935,229.876503 C58.5825077,230.194245 57.75279,230.85507 57.4267229,231.668562 C57.1006558,232.482054 57.3144573,233.357854 58.0065207,234.043601 L96.4227961,271.918684 C97.5081561,272.994643 99.5098565,273.362217 101.183074,272.792817 L121.076023,266.003322 C122.640611,265.471704 124.507899,265.756113 125.635868,266.697838 L171.718696,305.255463 C173.983943,307.162888 174.94044,309.696696 174.326174,312.162801 C173.711908,314.628906 171.591274,316.768778 168.545177,317.996244 L127.0556,334.664633 C120.112358,337.44941 111.33752,335.740994 107.312975,330.820845 L70.967838,286.443653 C70.4239942,285.777381 70.2951593,284.978062 70.6127207,284.24043 C70.9302821,283.502798 71.6650843,282.894576 72.6381108,282.563941 L90.7772739,276.373167" id="Shape"></path>
                        <path d="M178.963333,193.763578 L132.990522,207.325539 C131.73725,207.695775 130.849642,208.508958 130.653951,209.466189 C130.458259,210.423421 130.98336,211.38346 132.036243,211.993432 L183.935629,241.958678 C185.089507,242.626541 186.679351,242.761284 188.020612,242.30489 L205.448761,236.335718 C206.715982,235.906272 208.210468,236.002323 209.349586,236.586423 L265.886432,265.620479 C268.8515,267.142546 270.519935,269.639692 270.309574,272.240594 C270.099214,274.841496 268.039244,277.185304 264.848444,278.4542 L231.431937,291.813208 C223.797449,294.836813 214.290117,293.955468 207.993505,289.640429 L159.325275,256.213062 C158.417885,255.587375 157.998147,254.684292 158.201866,253.796004 C158.405584,252.907716 159.20689,252.147028 160.346521,251.76006 L177.473318,245.946086" id="Shape"></path>
                        <path d="M120.978177,206.108626 L100.71281,194.392008 C99.6329823,193.76373 98.1610693,193.60429 96.8693787,193.975682 L78.9666409,199.126236 C77.5690301,199.525579 75.9737767,199.302137 74.890274,198.555274 L56.8377921,186.101163 C55.8924618,185.447501 55.4828619,184.492589 55.7531154,183.572425 C56.0233688,182.652262 56.9356081,181.895778 58.1688507,181.569152 L84.6070016,174.610551 C85.8002839,174.295275 87.1347041,174.424556 88.1675833,174.955507 L109.331415,185.875157 C110.462807,186.458795 111.060259,187.436381 110.890618,188.426418 C110.720978,189.416455 109.811132,190.262035 108.516141,190.633175 L103.674416,192.024895" id="Shape"></path>
                    </g>
                </g>
                <circle id="Oval-4" fill="#F7B11D" cx="366" cy="66" r="7"></circle>
                <circle id="Oval-4-Copy" fill="#F7B11D" cx="278" cy="302" r="7"></circle>
                <polyline id="Path-4" stroke="#F7B11D" stroke-width="2" points="366 65 329.893179 48 286 48"></polyline>
                <polyline id="Path-4-Copy-3" stroke="#F7B11D" stroke-width="2" points="281 303 227.662744 303 166 346"></polyline>
                <text id="Instant-and-engaging" font-family="Avenir-Light, Avenir" font-size="16" font-weight="300" fill="#303664">
                    <tspan x="53" y="52">Instant and engaging feedback</tspan>
                </text>
                <text id="Simple-input---fast" font-family="Avenir-Light, Avenir" font-size="16" font-weight="300" fill="#303664">
                    <tspan x="0" y="365">Simple input - fast tapping/stepping movement</tspan>
                </text>
                <text id="Multi-player-competi" transform="translate(465.000000, 307.000000) rotate(-22.000000) translate(-465.000000, -307.000000) " font-family="Avenir-Light, Avenir" font-size="16" font-weight="300" fill="#303664">
                    <tspan x="375" y="301">Multi-player competition </tspan>
                    <tspan x="375" y="323">brings people together</tspan>
                </text>
                <path d="M321.5,333.5 L499.5,263.5" id="Line" stroke="#F7B11D" stroke-width="2" stroke-linecap="round"></path>
            </g>
        </g>
    </g>
</svg>