<?xml version="1.0" encoding="UTF-8"?>
<svg width="600px" height="261px" viewBox="0 0 600 261" version="1.1" xmlns="http://www.w3.org/2000/svg" xmlns:xlink="http://www.w3.org/1999/xlink">
    <!-- Generator: Sketch 47.1 (45422) - http://www.bohemiancoding.com/sketch -->
    <title>Artboard Copy</title>
    <desc>Created with Sketch.</desc>
    <defs></defs>
    <g id="Welcome" stroke="none" stroke-width="1" fill="none" fill-rule="evenodd">
        <g id="Artboard-Copy">
            <path d="M355.897945,48.5062706 L352.32618,38.9999055 C351.731816,37.4079514 351.958666,35.6281539 352.933723,34.2332938 C353.908781,32.8384337 355.508991,32.0045477 357.219367,32 L395.933112,32 C399.021196,32.0020405 401.928651,33.44504 403.783145,35.8960513 L417.913204,54.636058 C419.137109,56.2138709 419.344636,58.3473156 418.447464,60.1284188 C417.550292,61.909522 415.706331,63.0247922 413.700353,62.9995814 L364.899316,62.9995814 C362.718875,62.9957932 360.769281,61.6504622 360.006129,59.6230036 L358.436122,55.4282551" id="Shape" stroke="#FFF200" stroke-width="0.83" fill="#FFF200" fill-rule="nonzero"></path>
            <path d="M379.454796,111.082412 L375.326719,100.042211 C374.731373,98.4406356 374.958597,96.6500815 375.935266,95.2467913 C376.911935,93.843501 378.514789,93.0045752 380.227992,93 L440.511021,93 C444.570407,92.9999974 448.392333,94.9075948 450.824661,98.1477387 L469.971075,123.664322 C471.14689,125.247773 471.329587,127.355906 470.443618,129.116958 C469.55765,130.87801 467.753595,131.99267 465.777473,132 L390.921677,132 C388.737633,131.996189 386.784818,130.642727 386.020404,128.603015 L381.944747,117.706533" id="Shape" stroke="#FFF200" stroke-width="0.83" fill="#FFF200" fill-rule="nonzero"></path>
            <path d="M409.980001,196.199287 L403.325308,178.133622 C402.732533,176.511257 402.958776,174.697461 403.931228,173.275956 C404.903679,171.85445 406.499611,171.004635 408.205416,171 L496.934654,171 C501.290948,171.001036 505.391694,173.08562 507.999712,176.624841 L535.975518,214.556121 C537.146255,216.160127 537.328164,218.295624 536.446021,220.079535 C535.563878,221.863446 533.767613,222.992575 531.800025,223 L423.785227,223 C421.662259,222.995638 419.753422,221.687449 418.957312,219.69127 L414.494754,208.481293" id="Shape" stroke="#FFF200" stroke-width="0.83" fill="#FFF200" fill-rule="nonzero"></path>
            <path d="M245.097823,48.5342016 L240.93279,59.617709 C240.168809,61.6485981 238.217099,62.9962054 236.034291,63 L187.219571,63 C185.244568,62.9927016 183.441534,61.8828632 182.556067,60.1294288 C181.670599,58.3759944 181.853194,56.2769805 183.028342,54.7003782 L196.977276,36.1888394 C198.95613,33.5511385 202.07404,31.9979266 205.385929,32.0000021 L243.774967,32.0000021 C245.4872,32.0045575 247.089147,32.8398544 248.065263,34.2370747 C249.041379,35.6342949 249.268475,37.4171038 248.673466,39.0117515 L248.673466,39.0117515" id="Shape" fill="#B8E986" fill-rule="nonzero"></path>
            <path d="M221.596978,111.027266 L215.043583,128.596186 C214.279066,130.639998 212.325985,131.996181 210.141644,132 L135.223237,132 C133.246847,131.992655 131.442547,130.875754 130.556457,129.111162 C129.670368,127.346569 129.85309,125.234198 131.029065,123.647563 L150.689248,97.4643747 C152.502959,95.0246661 155.353947,93.5717669 158.39604,93.5368965 L220.718823,93.0001411 C222.441516,92.9875281 224.060477,93.8210615 225.049632,95.2298878 C226.038786,96.6387141 226.271887,98.4430226 225.673189,100.05651 L225.306199,101.051472" id="Shape" fill="#B8E986" fill-rule="nonzero"></path>
            <path d="M189.016599,196.225757 L180.439613,219.558921 C179.67813,221.625109 177.732799,222.996139 175.557127,223 L67.2025081,223 C65.2339612,222.992575 63.4368218,221.863446 62.554249,220.079535 C61.6716762,218.295624 61.8536735,216.160127 63.0249806,214.556121 L91.9935228,175.288114 C93.985073,172.589122 97.1152244,170.999997 100.439961,171 L190.792048,171 C192.498684,171.004635 194.095394,171.85445 195.068319,173.275956 C196.041244,174.697461 196.267597,176.511257 195.674533,178.133622 L194.238508,182.104098" id="Shape" fill="#B8E986" fill-rule="nonzero"></path>
            <path d="M322.869131,-25.3733938 L444.36455,-25.3733938 C449.356672,-25.3727997 454.140259,-27.3697385 457.643061,-30.9165923 C461.145862,-34.4634461 463.074899,-39.2635512 462.997773,-44.2409544 L460.485428,-204.732652 C460.314033,-214.871879 452.021646,-223.00144 441.852205,-223 L156.596402,-223 C151.608785,-222.990171 146.833318,-220.986833 143.338649,-217.438291 C139.84398,-213.889749 137.921866,-209.092257 138.002434,-204.119391 L140.514779,-43.6276934 C140.686174,-33.4884665 148.978562,-25.3589053 159.148002,-25.3603457 L280.329378,-25.3603457 C290.620223,-25.3603457 298.962601,-17.0415715 298.962601,-6.77984344 L298.962601,28.9458695 C298.962601,36.3971523 305.020199,42.4376106 312.492624,42.4376106 L355.895996,42.4376106 L352.323756,32.8863973 C351.729312,31.2869329 351.956192,29.4987389 352.931379,28.0972983 C353.906567,26.6958576 355.506989,25.8580376 357.217594,25.8534685 L394.680317,25.8534685 C398.575224,25.8544888 402.241506,27.6872788 404.572674,30.7987004 L417.945675,48.6224126 C419.158385,50.2133572 419.353638,52.355126 418.448506,54.1380516 C417.543373,55.9209771 415.696774,57.0320224 413.693009,56.9992963 L364.885479,56.9992963 C362.704748,56.9954903 360.754895,55.6438125 359.991641,53.6067889 L358.421425,49.3922508" id="Shape" stroke="#231F20" stroke-width="0.83" stroke-linecap="round"></path>
            <path d="M300,50 L300,90.8673139 C300,99.233426 306.77532,106.0155 315.133102,106.0155 L380.460932,106.0155 L376.333723,94.9330608 C375.733852,93.3259966 375.95687,91.5268687 376.93093,90.115297 C377.904989,88.7037253 379.507005,87.858077 381.220863,87.850792 L441.871189,87.850792 C445.707024,87.8487252 449.319416,89.6567216 451.619265,92.7296883 L470.971292,118.632431 C472.146859,120.22194 472.329518,122.338138 471.443735,124.105928 C470.557953,125.873717 468.754277,126.992642 466.778571,127 L391.912301,127 C389.728716,126.996174 387.776311,125.637534 387.012058,123.590019 L382.937258,112.651848" id="Shape" stroke="#231F20" stroke-width="0.83"></path>
            <path d="M300,117 L300,171.194477 C300,181.855647 308.665213,190.498233 319.354295,190.498233 L412.281154,190.498233 L405.576039,172.634079 C404.979941,171.029811 405.207452,169.236247 406.185354,167.830597 C407.163256,166.424948 408.768134,165.584612 410.483501,165.580029 L499.211462,165.580029 C503.901931,165.581053 508.317343,167.787844 511.125834,171.534747 L538.969776,208.650308 C540.147075,210.236421 540.330003,212.348098 539.442916,214.112111 C538.555828,215.876124 536.749495,216.992658 534.770878,217 L426.150638,217 C424.015771,216.995687 422.096235,215.70209 421.295663,213.728177 L416.808091,202.64324" id="Shape" stroke="#231F20" stroke-width="0.83"></path>
            <path d="M290,42.5281276 L242.731655,42.5281276 L238.590792,53.6162888 C237.831245,55.6480307 235.89086,56.9962038 233.72072,57 L185.189281,57 C183.225739,56.9926985 181.433169,55.8823941 180.55284,54.1282235 C179.672511,52.3740529 179.854045,50.2741576 181.022375,48.6968934 L194.668993,30.4769102 C196.774339,27.661109 200.084681,26.0020446 203.601799,26 L241.364389,26 C243.066686,26.0045573 244.659336,26.840205 245.629788,28.2380119 C246.600239,29.6358188 246.826017,31.4193763 246.234461,33.0146935 L246.234461,33.0146935" id="Shape" stroke="#231F20" stroke-width="0.83"></path>
            <path d="M288,105.041337 L219.663807,105.041337 L213.105631,122.598469 C212.340556,124.640911 210.38605,125.996184 208.200115,126 L133.227048,126 C131.249216,125.99266 129.443599,124.876508 128.556863,123.1131 C127.670128,121.349691 127.852983,119.238737 129.029815,117.653167 L147.878013,92.5080044 C150.20354,89.4081375 153.846962,87.5693095 157.728393,87.5365363 L218.758778,87.000141 C220.482728,86.9875365 222.10287,87.8205106 223.092747,89.2283917 C224.082623,90.6362728 224.315894,92.4393708 223.71676,94.051776 L223.349502,95.0460697" id="Shape" stroke="#231F20" stroke-width="0.83"></path>
            <path d="M283,191.225757 L187.407136,191.225757 L178.803778,214.558921 C178.039954,216.625109 176.088643,217.996139 173.906281,218 L65.2185042,218 C63.2439046,217.992575 61.4412396,216.863446 60.5559532,215.079535 C59.6706667,213.295624 59.8532235,211.160127 61.0281321,209.556121 L89.8369404,170.671927 C91.999396,167.749079 95.3924125,166.019735 99.0033794,166 L189.161854,166 C190.873738,166.004635 192.475357,166.85445 193.451274,168.275956 C194.42719,169.697461 194.65424,171.511257 194.059352,173.133622 L192.618911,177.104098" id="Shape" stroke="#231F20" stroke-width="0.83"></path>
        </g>
    </g>
</svg>