<?xml version="1.0" encoding="UTF-8"?>
<svg width="655px" height="533px" viewBox="0 0 655 533" version="1.1" xmlns="http://www.w3.org/2000/svg" xmlns:xlink="http://www.w3.org/1999/xlink">
    <!-- Generator: Sketch 47.1 (45422) - http://www.bohemiancoding.com/sketch -->
    <title>taptile</title>
    <desc>Created with Sketch.</desc>
    <defs></defs>
    <g id="Welcome" stroke="none" stroke-width="1" fill="none" fill-rule="evenodd" stroke-linecap="round">
        <g id="Taptile" transform="translate(-203.000000, -33.000000)">
            <g id="taptile" transform="translate(204.000000, 34.000000)">
                <g id="Group-2" transform="translate(0.000000, 8.000000)" stroke="#CAC22F">
                    <path d="M283.32991,292.141252 L243.561126,276.735123 C241.958619,276.102048 240.033607,276.020588 238.335268,276.513982 L212.415009,283.885336 C210.620853,284.395275 208.588348,284.264958 206.953987,283.535196 L172.123639,268.036925 C170.192832,267.175224 169.121898,265.615848 169.360228,264.013148 C169.598557,262.410448 171.104915,261.041709 173.247199,260.481287 L208.391098,251.267095 C209.944613,250.863995 211.665085,250.930665 213.146629,251.451379 L251.817983,265.033098 C253.931253,265.779238 255.228298,267.329641 255.132491,268.995045 C255.036685,270.660449 253.565814,272.131648 251.373785,272.754591 L247.245357,274.044578" id="Shape"></path>
                    <path d="M457.280737,172.22796 L646.114737,192.313181 C647.846087,192.49316 649.601008,192.12433 650.922883,191.302659 C652.244759,190.480987 653.00288,189.287722 652.999992,188.03334 L652.999992,4.31926375 C653.000738,3.07241846 652.249662,1.88622322 650.940046,1.06593418 C649.63043,0.245645139 647.890167,-0.128631004 646.167096,0.0394221859 L266.771237,36.699644 C263.7755,36.9822307 261.535763,38.812987 261.535302,40.9794855 L261.535302,145.948231 C261.536975,148.027663 263.605723,149.810808 266.457081,150.19053 L418.011223,170.350837 C420.923736,170.700643 423.052619,172.513293 423.037721,174.630678 L423.037721,258.444242 C423.04303,260.194007 421.574875,261.773042 419.320207,262.442515 L306.930859,295.798999 C304.791706,296.433667 303.34945,297.891487 303.221034,299.54886 C303.092618,301.206233 304.300785,302.769631 306.328727,303.570291 L403.193527,341.732211 C404.968179,342.412987 407.099864,342.412987 408.874516,341.732211 L431.886451,333.172528 C433.597892,332.550421 435.620382,332.550421 437.331824,333.172528 L539.432559,369.607495 C543.90095,371.206063 546.771088,374.44458 546.89178,378.024097 C547.012471,381.603615 544.363946,384.937795 540.008512,386.689319 L498.356648,403.395718 C488.129389,407.494651 475.595268,407.25701 465.684412,402.776267 L372.589486,360.653616 C370.771891,359.795975 369.740997,358.301948 369.892935,356.74563 C370.044874,355.189313 371.356006,353.812835 373.322517,353.145122 L378.68935,351.399397 L388.085284,347.724811" id="Shape"></path>
                    <path d="M78.7173528,353.423756 L57.9281404,332.655038 C56.3430856,331.06607 53.4882813,330.446914 50.9637542,331.144586 L27.0561599,337.752814 C24.3216059,338.500128 21.2442289,337.701597 19.7799355,335.864749 L0.835765663,312.414978 C-0.0685612111,311.30682 -0.248985182,309.96413 0.343258979,308.749814 C0.935503139,307.535497 2.23926955,306.574924 3.9021745,306.127721 L46.9358443,294.912613 C49.2686074,294.307677 51.873214,294.810813 53.4844462,296.177617 L78.1976225,317.135141 C79.4499868,318.19806 79.9207223,319.634291 79.4621417,320.993233 C79.0035612,322.352176 77.6718527,323.467326 75.8848226,323.988818 L62.4757806,327.897114" id="Shape"></path>
                    <path d="M184.157026,329.918138 L92.6124561,357.018284 C90.8988623,357.515246 89.599568,358.548805 89.0889642,359.821141 C88.5783603,361.093477 88.9131622,362.463266 89.9968969,363.535804 L150.154757,422.774064 C151.854374,424.456911 154.988931,425.031811 157.609101,424.141245 L188.760411,413.522183 C191.210472,412.690709 194.134547,413.135538 195.900887,414.608436 L268.064164,474.914221 C271.611421,477.897516 273.109245,481.860501 272.147337,485.717595 C271.185428,489.574689 267.864627,492.921542 263.094602,494.84135 L198.124112,520.911429 C187.251362,525.266939 173.510428,522.594903 167.208203,514.899579 L110.293636,445.49174 C109.442005,444.449663 109.240257,443.199493 109.737541,442.045805 C110.234825,440.892117 111.385487,439.940831 112.909195,439.423705 L141.314167,429.741068" id="Shape"></path>
                    <path d="M280.247137,302.215088 L208.256142,323.426578 C206.293584,324.005644 204.903636,325.277496 204.597194,326.774648 C204.290751,328.271799 205.113031,329.773342 206.761791,330.727363 L288.03349,377.594299 C289.840403,378.638864 292.330016,378.849608 294.43036,378.135789 L321.72192,368.799746 C323.706322,368.128075 326.046608,368.278302 327.830406,369.19186 L416.364125,414.602373 C421.007265,416.982952 423.619946,420.888595 423.290533,424.956518 C422.96112,429.024441 419.735315,432.690258 414.738691,434.674865 L362.410203,455.568929 C350.454999,460.297977 335.567018,458.919516 325.706855,452.170609 L249.494975,399.888769 C248.07405,398.910166 247.416762,397.497706 247.735775,396.108385 C248.054788,394.719065 249.30959,393.529317 251.094192,392.924081 L277.913853,383.830775" id="Shape"></path>
                    <path d="M190.283697,321.523274 L158.549202,303.19798 C156.858248,302.215325 154.55331,301.965955 152.530591,302.546827 L124.495848,310.602515 C122.307263,311.227105 119.80918,310.877633 118.112472,309.709506 L89.843238,290.230741 C88.3629006,289.208385 87.7214888,287.714862 88.1446914,286.275687 C88.567894,284.836511 89.9964127,283.653338 91.9276055,283.14248 L133.328355,272.25893 C135.196972,271.765823 137.286604,271.968025 138.904038,272.798456 L172.045481,289.877258 C173.817182,290.790092 174.75276,292.319079 174.487112,293.86754 C174.221465,295.416001 172.796693,296.738524 170.768806,297.319002 L163.186919,299.495712" id="Shape"></path>
                </g>
                <g id="Group" stroke="#231F20" stroke-width="0.5">
                    <path d="M283.32991,293.530351 L243.561126,278.139421 C241.958619,277.506971 240.033607,277.425592 238.335268,277.918499 L212.415009,285.28258 C210.620853,285.792016 208.588348,285.661828 206.953987,284.932786 L172.123639,269.449805 C170.192832,268.588954 169.121898,267.031117 169.360228,265.429998 C169.598557,263.828879 171.104915,262.461491 173.247199,261.901621 L208.391098,252.69652 C209.944613,252.293817 211.665085,252.360422 213.146629,252.880622 L251.817983,266.448942 C253.931253,267.194345 255.228298,268.743219 255.132491,270.40698 C255.036685,272.070741 253.565814,273.540488 251.373785,274.162817 L247.245357,275.451531" id="Shape"></path>
                    <path d="M457.280737,172.058046 L646.114737,192.123452 C647.846087,192.303253 649.601008,191.934787 650.922883,191.113926 C652.244759,190.293065 653.00288,189.100977 652.999992,187.847832 L652.999992,4.3150025 C653.000738,3.06938732 652.249662,1.88436234 650.940046,1.06488257 C649.63043,0.245402794 647.890167,-0.128504101 646.167096,0.0393832933 L266.771237,36.6634373 C263.7755,36.9457453 261.535763,38.7746954 261.535302,40.9390565 L261.535302,145.804243 C261.536975,147.881623 263.605723,149.66301 266.457081,150.042357 L418.011223,170.182774 C420.923736,170.532235 423.052619,172.343097 423.037721,174.458393 L423.037721,258.189269 C423.04303,259.937309 421.574875,261.514786 419.320207,262.183598 L306.930859,295.507174 C304.791706,296.141215 303.34945,297.597597 303.221034,299.253335 C303.092618,300.909073 304.300785,302.470928 306.328727,303.270798 L403.193527,341.39507 C404.968179,342.075174 407.099864,342.075174 408.874516,341.39507 L431.886451,332.843831 C433.597892,332.222337 435.620382,332.222337 437.331824,332.843831 L539.432559,369.242853 C543.90095,370.839844 546.771088,374.075166 546.89178,377.651151 C547.012471,381.227137 544.363946,384.558028 540.008512,386.307824 L498.356648,402.997741 C488.129389,407.09263 475.595268,406.855223 465.684412,402.378901 L372.589486,360.297807 C370.771891,359.441012 369.740997,357.948459 369.892935,356.393677 C370.044874,354.838895 371.356006,353.463775 373.322517,352.796721 L378.68935,351.052718 L389.939869,347.497911" id="Shape"></path>
                    <path d="M78.7173528,354.752396 L57.9281404,334.004168 C56.3430856,332.416768 53.4882813,331.798222 50.9637542,332.495206 L27.0561599,339.096915 C24.3216059,339.843492 21.2442289,339.045749 19.7799355,337.210712 L0.835765663,313.784076 C-0.0685612111,312.677011 -0.248985182,311.335646 0.343258979,310.122528 C0.935503139,308.909409 2.23926955,307.949784 3.9021745,307.503022 L46.9358443,296.298979 C49.2686074,295.694639 51.873214,296.197279 53.4844462,297.562734 L78.1976225,318.499583 C79.4499868,319.561453 79.9207223,320.996266 79.4621417,322.353868 C79.0035612,323.711471 77.6718527,324.82552 75.8848226,325.346498 L62.4757806,329.250937" id="Shape"></path>
                    <path d="M184.995281,332.108626 L93.4507103,359.182036 C91.7371165,359.678508 90.4378222,360.711047 89.9272184,361.982128 C89.4166145,363.253209 89.7514164,364.621646 90.8351511,365.693126 L150.993012,424.872944 C152.692628,426.55413 155.827185,427.128464 158.447355,426.238776 L189.598665,415.63019 C192.048726,414.799537 194.972801,415.243926 196.739141,416.715372 L268.902418,476.961661 C272.449675,479.942013 273.947499,483.901088 272.985591,487.754376 C272.023683,491.607665 268.702882,494.951216 263.932856,496.869131 L198.962366,522.913489 C188.089616,527.264703 174.348683,524.595303 168.046457,516.90757 L111.13189,447.568207 C110.28026,446.527158 110.078511,445.278222 110.575795,444.125672 C111.07308,442.973122 112.223741,442.022775 113.747449,441.506158 L142.152422,431.833074" id="Shape"></path>
                    <path d="M280.247137,302.755591 L208.256142,323.946154 C206.293584,324.524649 204.903636,325.795247 204.597194,327.290921 C204.290751,328.786595 205.113031,330.286657 206.761791,331.239737 L288.03349,378.060435 C289.840403,379.10397 292.330016,379.314506 294.43036,378.601391 L321.72192,369.274559 C323.706322,368.603551 326.046608,368.753629 327.830406,369.666286 L416.364125,415.031998 C421.007265,417.410228 423.619946,421.312019 423.290533,425.375929 C422.96112,429.439838 419.735315,433.102038 414.738691,435.084687 L362.410203,455.958138 C350.454999,460.68252 335.567018,459.305419 325.706855,452.563171 L249.494975,400.33291 C248.07405,399.355273 247.416762,397.944206 247.735775,396.556256 C248.054788,395.168306 249.30959,393.979732 251.094192,393.375093 L277.913853,384.290759" id="Shape"></path>
                    <path d="M189.445443,322.044728 L157.710948,303.737513 C156.019994,302.755828 153.715056,302.506703 151.692336,303.087003 L123.657594,311.134743 C121.469009,311.758717 118.970926,311.409589 117.274218,310.242615 L89.0049838,290.783067 C87.5246464,289.76172 86.8832346,288.26967 87.3064372,286.831915 C87.7296398,285.394159 89.1581585,284.212153 91.0893513,283.701799 L132.490101,272.828986 C134.358718,272.336366 136.44835,272.538368 138.065784,273.36798 L171.207227,290.429933 C172.978927,291.341867 173.914506,292.869345 173.648858,294.416278 C173.38321,295.963211 171.958439,297.28443 169.930552,297.864335 L162.348665,300.038898" id="Shape"></path>
                </g>
            </g>
        </g>
    </g>
</svg>