<svg xmlns="http://www.w3.org/2000/svg" viewBox="0 0 246.72 236.23"><defs><style>.cls-1{fill:#3fa9f5;}.cls-2{fill:#ff7bac;}.cls-3{fill:#8ae5ff;}.cls-4{fill:#8ad2ff;}</style></defs><title>Asset 6</title><g id="Layer_2" data-name="Layer 2"><g id="Layer_1-2" data-name="Layer 1"><path class="cls-1" d="M0,205.13V8.55a4,4,0,0,1,4-4H76a4,4,0,0,1,4,4V236.23"/><path class="cls-2" d="M80.2,117.55,186.67,1.3a4,4,0,0,1,5.65-.25l53.1,48.63a4,4,0,0,1,.25,5.65l-57,62.22Z"/><path class="cls-3" d="M245.42,185.42l-53.1,48.63a4,4,0,0,1-5.65-.25L80.2,117.55H188.68l57,62.22A4,4,0,0,1,245.42,185.42Z"/><polygon class="cls-4" points="80.14 117.62 0 205.13 80 236.23 134.41 176.81 80.14 117.62"/></g></g></svg>