<?xml version="1.0" encoding="UTF-8"?>
<svg width="64px" height="64px" viewBox="0 0 64 64" version="1.1" xmlns="http://www.w3.org/2000/svg" xmlns:xlink="http://www.w3.org/1999/xlink">
    <!-- Generator: Sketch 48.1 (47250) - http://www.bohemiancoding.com/sketch -->
    <title>question</title>
    <desc>Created with Sketch.</desc>
    <defs></defs>
    <g id="Tablet-Portrait" stroke="none" stroke-width="1" fill="none" fill-rule="evenodd" transform="translate(-504.000000, -566.000000)">
        <g id="question" transform="translate(504.000000, 566.000000)" fill="#0F3351" fill-rule="nonzero">
            <circle id="Oval" cx="31.9781132" cy="50.3625984" r="2"></circle>
            <path d="M31.5331993,13.3799 C25.2646007,13.3799 21.3711128,17.2735005 21.3711128,23.5419998 C21.3711128,24.0946998 21.8183002,24.5419998 22.3711128,24.5419998 C22.9237995,24.5419998 23.3711128,24.0946998 23.3711128,23.5419998 C23.3711128,18.3544998 26.3456993,15.3799 31.5331993,15.3799 C39.4091988,15.3799 40.5848999,21.0517998 40.5848999,24.4326 C40.5848999,27.7206993 37.8828011,31.4619007 34.2998009,33.1338005 C30.244112,35.0253982 30.9531136,41.6621017 30.9853001,41.9434013 C31.0429993,42.4541015 31.4755993,42.830101 31.977501,42.830101 C32.0155984,42.830101 32.0536996,42.8280983 32.0918008,42.8232994 C32.6405984,42.7607994 33.0351144,42.2655983 32.9716989,41.7168007 C32.9658014,41.6621018 32.4238016,36.2158012 35.1455003,34.9463005 C39.4560014,32.9346008 42.5849,28.5126991 42.5849,24.4326 C42.5848999,17.5116997 38.4531136,13.3799 31.5331993,13.3799 Z" id="Shape"></path>
            <path d="M32,0 C14.3269005,0 0,14.3268995 0,32 C0,49.6731005 14.3268995,64 32,64 C49.6731005,64 64,49.6730995 64,32 C64,14.3269005 49.673111,0 32,0 Z M32,62 C15.457901,62 2,48.542099 2,32 C2,15.4580002 15.4578991,2 32,2 C48.5419998,2 62,15.4580002 62,32 C62,48.542099 48.5419998,62 32,62 Z" id="Shape"></path>
        </g>
    </g>
</svg>