<svg xmlns="http://www.w3.org/2000/svg" viewBox="0 0 386.2 95.1"><defs><style>.cls-1{fill:#00bde5;}.cls-1,.cls-2,.cls-3,.cls-4,.cls-5,.cls-6,.cls-7,.cls-8{stroke:#fff;stroke-miterlimit:10;stroke-width:0.24px;}.cls-2{fill:#61e41c;}.cls-3{fill:#fb1b8d;}.cls-4{fill:#ad6ed7;}.cls-5{fill:#f7dd00;}.cls-6{fill:#f5e6e1;}.cls-7{fill:#fc7406;}.cls-8{fill:#191918;}</style></defs><title>text</title><g id="Layer_2" data-name="Layer 2"><g id="Layer_1-2" data-name="Layer 1"><rect class="cls-1" x="87.06" y="50.84" width="3.15" height="3.15"/><rect class="cls-2" x="90.22" y="50.84" width="3.15" height="3.15"/><rect class="cls-2" x="93.37" y="53.99" width="3.15" height="3.15"/><rect class="cls-1" x="83.91" y="50.84" width="3.15" height="3.15"/><rect class="cls-1" x="80.76" y="53.99" width="3.15" height="3.15"/><rect class="cls-1" x="77.6" y="57.15" width="3.15" height="3.15"/><rect class="cls-1" x="74.45" y="57.15" width="3.15" height="3.15"/><rect class="cls-3" x="64.99" y="50.84" width="3.15" height="3.15" transform="translate(133.14 104.83) rotate(180)"/><rect class="cls-3" x="61.84" y="50.84" width="3.15" height="3.15" transform="translate(126.83 104.83) rotate(180)"/><rect class="cls-3" x="58.69" y="53.99" width="3.15" height="3.15" transform="translate(120.53 111.14) rotate(180)"/><rect class="cls-3" x="68.15" y="50.84" width="3.15" height="3.15" transform="translate(139.44 104.83) rotate(180)"/><rect class="cls-4" x="71.3" y="53.99" width="3.15" height="3.15" transform="translate(145.75 111.14) rotate(180)"/><rect class="cls-2" x="87.06" y="53.99" width="3.15" height="3.15"/><rect class="cls-2" x="90.22" y="53.99" width="3.15" height="3.15"/><rect class="cls-5" x="93.37" y="57.15" width="3.15" height="3.15"/><rect class="cls-1" x="83.91" y="53.99" width="3.15" height="3.15"/><rect class="cls-1" x="80.76" y="57.15" width="3.15" height="3.15"/><rect class="cls-1" x="77.6" y="60.3" width="3.15" height="3.15"/><rect class="cls-1" x="74.45" y="60.3" width="3.15" height="3.15"/><rect class="cls-3" x="64.99" y="53.99" width="3.15" height="3.15" transform="translate(133.14 111.14) rotate(180)"/><rect class="cls-3" x="61.84" y="53.99" width="3.15" height="3.15" transform="translate(126.83 111.14) rotate(180)"/><rect class="cls-3" x="58.69" y="57.15" width="3.15" height="3.15" transform="translate(120.53 117.44) rotate(180)"/><rect class="cls-4" x="68.15" y="53.99" width="3.15" height="3.15" transform="translate(139.44 111.14) rotate(180)"/><rect class="cls-4" x="71.3" y="57.15" width="3.15" height="3.15" transform="translate(145.75 117.44) rotate(180)"/><rect class="cls-2" x="87.06" y="57.15" width="3.15" height="3.15"/><rect class="cls-2" x="90.22" y="57.15" width="3.15" height="3.15"/><rect class="cls-5" x="93.37" y="60.3" width="3.15" height="3.15"/><rect class="cls-2" x="83.91" y="57.15" width="3.15" height="3.15"/><rect class="cls-2" x="80.76" y="60.3" width="3.15" height="3.15"/><rect class="cls-2" x="77.6" y="63.45" width="3.15" height="3.15"/><rect class="cls-2" x="74.45" y="63.45" width="3.15" height="3.15"/><rect class="cls-6" x="64.99" y="57.15" width="3.15" height="3.15" transform="translate(133.14 117.44) rotate(180)"/><rect class="cls-3" x="61.84" y="57.15" width="3.15" height="3.15" transform="translate(126.83 117.44) rotate(180)"/><rect class="cls-3" x="58.69" y="60.3" width="3.15" height="3.15" transform="translate(120.53 123.75) rotate(180)"/><rect class="cls-4" x="68.15" y="57.15" width="3.15" height="3.15" transform="translate(139.44 117.44) rotate(180)"/><rect class="cls-1" x="71.3" y="60.3" width="3.15" height="3.15" transform="translate(145.75 123.75) rotate(180)"/><rect class="cls-2" x="87.06" y="60.3" width="3.15" height="3.15"/><rect class="cls-5" x="90.22" y="60.3" width="3.15" height="3.15"/><rect class="cls-5" x="93.37" y="63.45" width="3.15" height="3.15"/><rect class="cls-2" x="83.91" y="60.3" width="3.15" height="3.15"/><rect class="cls-2" x="80.76" y="63.45" width="3.15" height="3.15"/><rect class="cls-2" x="77.6" y="66.6" width="3.15" height="3.15"/><rect class="cls-2" x="74.45" y="66.6" width="3.15" height="3.15"/><rect class="cls-6" x="64.99" y="60.3" width="3.15" height="3.15" transform="translate(133.14 123.75) rotate(180)"/><rect class="cls-6" x="61.84" y="60.3" width="3.15" height="3.15" transform="translate(126.83 123.75) rotate(180)"/><rect class="cls-4" x="58.69" y="63.45" width="3.15" height="3.15" transform="translate(120.53 130.06) rotate(180)"/><rect class="cls-6" x="68.15" y="60.3" width="3.15" height="3.15" transform="translate(139.44 123.75) rotate(180)"/><rect class="cls-1" x="71.3" y="63.45" width="3.15" height="3.15" transform="translate(145.75 130.06) rotate(180)"/><rect class="cls-5" x="87.06" y="63.45" width="3.15" height="3.15"/><rect class="cls-5" x="90.22" y="63.45" width="3.15" height="3.15"/><rect class="cls-7" x="93.37" y="66.6" width="3.15" height="3.15"/><rect class="cls-5" x="96.52" y="57.15" width="3.15" height="3.15"/><rect class="cls-5" x="96.52" y="60.3" width="3.15" height="3.15"/><rect class="cls-7" x="96.52" y="63.45" width="3.15" height="3.15"/><rect class="cls-7" x="96.52" y="66.6" width="3.15" height="3.15"/><rect class="cls-2" x="83.91" y="63.45" width="3.15" height="3.15"/><rect class="cls-2" x="80.76" y="66.6" width="3.15" height="3.15"/><rect class="cls-2" x="77.6" y="69.76" width="3.15" height="3.15"/><rect class="cls-2" x="74.45" y="69.76" width="3.15" height="3.15"/><rect class="cls-6" x="64.99" y="63.45" width="3.15" height="3.15" transform="translate(133.14 130.06) rotate(180)"/><rect class="cls-4" x="61.84" y="63.45" width="3.15" height="3.15" transform="translate(126.83 130.06) rotate(180)"/><rect class="cls-4" x="58.69" y="66.6" width="3.15" height="3.15" transform="translate(120.53 136.36) rotate(180)"/><rect class="cls-3" x="55.53" y="57.15" width="3.15" height="3.15" transform="translate(114.22 117.44) rotate(180)"/><rect class="cls-3" x="55.53" y="60.3" width="3.15" height="3.15" transform="translate(114.22 123.75) rotate(180)"/><rect class="cls-3" x="55.53" y="63.45" width="3.15" height="3.15" transform="translate(114.22 130.06) rotate(180)"/><rect class="cls-4" x="55.53" y="66.6" width="3.15" height="3.15" transform="translate(114.22 136.36) rotate(180)"/><rect class="cls-1" x="68.15" y="63.45" width="3.15" height="3.15" transform="translate(139.44 130.06) rotate(180)"/><rect class="cls-1" x="71.3" y="66.6" width="3.15" height="3.15" transform="translate(145.75 136.36) rotate(180)"/><rect class="cls-5" x="87.06" y="66.6" width="3.15" height="3.15"/><rect class="cls-5" x="90.22" y="66.6" width="3.15" height="3.15"/><rect class="cls-7" x="93.37" y="69.76" width="3.15" height="3.15"/><rect class="cls-5" x="83.91" y="66.6" width="3.15" height="3.15"/><rect class="cls-5" x="80.76" y="69.76" width="3.15" height="3.15"/><rect class="cls-5" x="77.6" y="72.91" width="3.15" height="3.15"/><rect class="cls-2" x="74.45" y="72.91" width="3.15" height="3.15"/><rect class="cls-1" x="64.99" y="66.6" width="3.15" height="3.15" transform="translate(133.14 136.36) rotate(180)"/><rect class="cls-4" x="61.84" y="66.6" width="3.15" height="3.15" transform="translate(126.83 136.36) rotate(180)"/><rect class="cls-4" x="58.69" y="69.76" width="3.15" height="3.15" transform="translate(120.53 142.67) rotate(180)"/><rect class="cls-1" x="68.15" y="66.6" width="3.15" height="3.15" transform="translate(139.44 136.36) rotate(180)"/><rect class="cls-2" x="71.3" y="69.76" width="3.15" height="3.15" transform="translate(145.75 142.67) rotate(180)"/><rect class="cls-5" x="87.06" y="69.76" width="3.15" height="3.15"/><rect class="cls-7" x="90.22" y="69.76" width="3.15" height="3.15"/><rect class="cls-7" x="93.37" y="72.91" width="3.15" height="3.15"/><rect class="cls-5" x="83.91" y="69.76" width="3.15" height="3.15"/><rect class="cls-5" x="80.76" y="72.91" width="3.15" height="3.15"/><rect class="cls-5" x="77.6" y="76.06" width="3.15" height="3.15"/><rect class="cls-5" x="74.45" y="76.06" width="3.15" height="3.15"/><rect class="cls-1" x="64.99" y="69.76" width="3.15" height="3.15" transform="translate(133.14 142.67) rotate(180)"/><rect class="cls-1" x="61.84" y="69.76" width="3.15" height="3.15" transform="translate(126.83 142.67) rotate(180)"/><rect class="cls-1" x="58.69" y="72.91" width="3.15" height="3.15" transform="translate(120.53 148.97) rotate(180)"/><rect class="cls-1" x="68.15" y="69.76" width="3.15" height="3.15" transform="translate(139.44 142.67) rotate(180)"/><rect class="cls-2" x="71.3" y="72.91" width="3.15" height="3.15" transform="translate(145.75 148.97) rotate(180)"/><rect class="cls-7" x="87.06" y="72.91" width="3.15" height="3.15"/><rect class="cls-7" x="90.22" y="72.91" width="3.15" height="3.15"/><rect class="cls-5" x="83.91" y="72.91" width="3.15" height="3.15"/><rect class="cls-5" x="80.76" y="76.06" width="3.15" height="3.15"/><rect class="cls-5" x="77.6" y="79.22" width="3.15" height="3.15"/><rect class="cls-5" x="74.45" y="79.22" width="3.15" height="3.15"/><rect class="cls-1" x="64.99" y="72.91" width="3.15" height="3.15" transform="translate(133.14 148.97) rotate(180)"/><rect class="cls-1" x="61.84" y="72.91" width="3.15" height="3.15" transform="translate(126.83 148.97) rotate(180)"/><rect class="cls-2" x="68.15" y="72.91" width="3.15" height="3.15" transform="translate(139.44 148.97) rotate(180)"/><rect class="cls-2" x="71.3" y="76.06" width="3.15" height="3.15" transform="translate(145.75 155.28) rotate(180)"/><rect class="cls-7" x="87.06" y="76.06" width="3.15" height="3.15"/><rect class="cls-7" x="90.22" y="76.06" width="3.15" height="3.15"/><rect class="cls-7" x="83.91" y="76.06" width="3.15" height="3.15"/><rect class="cls-7" x="80.76" y="79.22" width="3.15" height="3.15"/><rect class="cls-7" x="77.6" y="82.37" width="3.15" height="3.15"/><rect class="cls-5" x="74.45" y="82.37" width="3.15" height="3.15"/><rect class="cls-2" x="64.99" y="76.06" width="3.15" height="3.15" transform="translate(133.14 155.28) rotate(180)"/><rect class="cls-1" x="61.84" y="76.06" width="3.15" height="3.15" transform="translate(126.83 155.28) rotate(180)"/><rect class="cls-2" x="68.15" y="76.06" width="3.15" height="3.15" transform="translate(139.44 155.28) rotate(180)"/><rect class="cls-5" x="71.3" y="79.22" width="3.15" height="3.15" transform="translate(145.75 161.59) rotate(180)"/><rect class="cls-7" x="87.06" y="79.22" width="3.15" height="3.15"/><rect class="cls-7" x="83.91" y="79.22" width="3.15" height="3.15"/><rect class="cls-7" x="80.76" y="82.37" width="3.15" height="3.15"/><rect class="cls-7" x="77.6" y="85.52" width="3.15" height="3.15"/><rect class="cls-7" x="74.45" y="85.52" width="3.15" height="3.15"/><rect class="cls-2" x="64.99" y="79.22" width="3.15" height="3.15" transform="translate(133.14 161.59) rotate(180)"/><rect class="cls-2" x="68.15" y="79.22" width="3.15" height="3.15" transform="translate(139.44 161.59) rotate(180)"/><rect class="cls-5" x="71.3" y="82.37" width="3.15" height="3.15" transform="translate(145.75 167.89) rotate(180)"/><rect class="cls-7" x="83.91" y="82.37" width="3.15" height="3.15"/><rect class="cls-7" x="80.76" y="85.52" width="3.15" height="3.15"/><rect class="cls-7" x="77.6" y="88.68" width="3.15" height="3.15"/><rect class="cls-7" x="74.45" y="88.68" width="3.15" height="3.15"/><rect class="cls-5" x="68.15" y="82.37" width="3.15" height="3.15" transform="translate(139.44 167.89) rotate(180)"/><rect class="cls-5" x="71.3" y="85.52" width="3.15" height="3.15" transform="translate(145.75 174.2) rotate(180)"/><rect class="cls-8" x="87.06" y="47.69" width="3.15" height="3.15"/><rect class="cls-8" x="90.22" y="47.69" width="3.15" height="3.15"/><rect class="cls-8" x="93.37" y="50.84" width="3.15" height="3.15"/><rect class="cls-8" x="96.52" y="53.99" width="3.15" height="3.15"/><rect class="cls-8" x="83.91" y="47.69" width="3.15" height="3.15"/><rect class="cls-8" x="80.76" y="50.84" width="3.15" height="3.15"/><rect class="cls-8" x="77.6" y="53.99" width="3.15" height="3.15"/><rect class="cls-8" x="74.45" y="53.99" width="3.15" height="3.15"/><rect class="cls-8" x="99.68" y="60.3" width="3.15" height="3.15" transform="translate(39.38 163.13) rotate(-90)"/><rect class="cls-8" x="99.68" y="57.15" width="3.15" height="3.15" transform="translate(42.53 159.97) rotate(-90)"/><rect class="cls-8" x="99.68" y="63.45" width="3.15" height="3.15" transform="translate(36.22 166.28) rotate(-90)"/><rect class="cls-8" x="99.68" y="66.6" width="3.15" height="3.15" transform="translate(33.07 169.43) rotate(-90)"/><rect class="cls-8" x="96.52" y="69.76" width="3.15" height="3.15" transform="translate(26.77 169.43) rotate(-90)"/><rect class="cls-8" x="96.52" y="72.91" width="3.15" height="3.15" transform="translate(23.61 172.59) rotate(-90)"/><rect class="cls-8" x="93.37" y="76.06" width="3.15" height="3.15" transform="translate(17.31 172.59) rotate(-90)"/><rect class="cls-8" x="90.22" y="79.22" width="3.15" height="3.15" transform="translate(11 172.59) rotate(-90)"/><rect class="cls-8" x="87.06" y="82.37" width="3.15" height="3.15" transform="translate(4.69 172.59) rotate(-90)"/><rect class="cls-8" x="83.91" y="85.52" width="3.15" height="3.15" transform="translate(-1.61 172.59) rotate(-90)"/><rect class="cls-8" x="80.76" y="88.68" width="3.15" height="3.15" transform="translate(-7.92 172.59) rotate(-90)"/><rect class="cls-8" x="77.6" y="91.83" width="3.15" height="3.15" transform="translate(-14.22 172.59) rotate(-90)"/><rect class="cls-8" x="74.45" y="91.83" width="3.15" height="3.15" transform="translate(-17.38 169.43) rotate(-90)"/><rect class="cls-8" x="64.99" y="47.69" width="3.15" height="3.15" transform="translate(133.14 98.53) rotate(180)"/><rect class="cls-8" x="61.84" y="47.69" width="3.15" height="3.15" transform="translate(126.83 98.53) rotate(180)"/><rect class="cls-8" x="58.69" y="50.84" width="3.15" height="3.15" transform="translate(120.53 104.83) rotate(180)"/><rect class="cls-8" x="55.53" y="53.99" width="3.15" height="3.15" transform="translate(114.22 111.14) rotate(180)"/><rect class="cls-8" x="68.15" y="47.69" width="3.15" height="3.15" transform="translate(139.44 98.53) rotate(180)"/><rect class="cls-8" x="71.3" y="50.84" width="3.15" height="3.15" transform="translate(145.75 104.83) rotate(180)"/><rect class="cls-8" x="52.38" y="60.3" width="3.15" height="3.15" transform="translate(-7.92 115.83) rotate(-90)"/><rect class="cls-8" x="52.38" y="57.15" width="3.15" height="3.15" transform="translate(-4.76 112.68) rotate(-90)"/><rect class="cls-8" x="52.38" y="63.45" width="3.15" height="3.15" transform="translate(-11.07 118.98) rotate(-90)"/><rect class="cls-8" x="52.38" y="66.6" width="3.15" height="3.15" transform="translate(-14.22 122.14) rotate(-90)"/><rect class="cls-8" x="55.53" y="69.76" width="3.15" height="3.15" transform="translate(-14.22 128.44) rotate(-90)"/><rect class="cls-8" x="55.53" y="72.91" width="3.15" height="3.15" transform="translate(-17.38 131.6) rotate(-90)"/><rect class="cls-8" x="58.69" y="76.06" width="3.15" height="3.15" transform="translate(-17.38 137.9) rotate(-90)"/><rect class="cls-8" x="61.84" y="79.22" width="3.15" height="3.15" transform="translate(-17.38 144.21) rotate(-90)"/><rect class="cls-8" x="64.99" y="82.37" width="3.15" height="3.15" transform="translate(-17.38 150.51) rotate(-90)"/><rect class="cls-8" x="68.15" y="85.52" width="3.15" height="3.15" transform="translate(-17.38 156.82) rotate(-90)"/><rect class="cls-8" x="71.3" y="88.68" width="3.15" height="3.15" transform="translate(-17.38 163.13) rotate(-90)"/><rect y="23.96" width="5.06" height="5.06"/><rect y="18.23" width="5.06" height="5.06"/><rect y="12.5" width="5.06" height="5.06"/><rect y="6.77" width="5.06" height="5.06"/><rect x="17.19" y="23.96" width="5.06" height="5.06"/><rect x="17.19" y="18.23" width="5.06" height="5.06"/><rect x="17.19" y="12.5" width="5.06" height="5.06"/><rect x="17.19" y="6.77" width="5.06" height="5.06"/><rect y="1.03" width="5.06" height="5.06"/><rect x="17.19" y="1.03" width="5.06" height="5.06"/><rect x="11.46" y="18.23" width="5.06" height="5.06"/><rect x="5.73" y="18.23" width="5.06" height="5.06"/><rect x="28.94" y="23.93" width="5.06" height="5.06"/><rect x="28.94" y="18.2" width="5.06" height="5.06"/><rect x="28.94" y="12.47" width="5.06" height="5.06"/><rect x="28.94" y="6.74" width="5.06" height="5.06"/><rect x="46.14" y="23.93" width="5.06" height="5.06"/><rect x="46.14" y="18.2" width="5.06" height="5.06"/><rect x="46.14" y="12.47" width="5.06" height="5.06"/><rect x="46.14" y="6.74" width="5.06" height="5.06"/><rect x="40.4" y="1.01" width="5.06" height="5.06"/><rect x="34.67" y="1.01" width="5.06" height="5.06"/><rect x="40.4" y="18.2" width="5.06" height="5.06"/><rect x="34.67" y="18.2" width="5.06" height="5.06"/><rect x="69.34" y="1.01" width="5.06" height="5.06"/><rect x="63.61" y="1.01" width="5.06" height="5.06"/><rect x="69.34" y="18.2" width="5.06" height="5.06"/><rect x="63.61" y="18.2" width="5.06" height="5.06"/><rect x="57.88" y="23.93" width="5.06" height="5.06"/><rect x="57.88" y="18.2" width="5.06" height="5.06"/><rect x="57.88" y="12.47" width="5.06" height="5.06"/><rect x="57.88" y="6.74" width="5.06" height="5.06"/><rect x="75.08" y="6.74" width="5.06" height="5.06"/><rect x="75.08" y="12.47" width="5.06" height="5.06"/><rect x="98.28" y="1.01" width="5.06" height="5.06"/><rect x="92.55" y="1.01" width="5.06" height="5.06"/><rect x="98.28" y="18.2" width="5.06" height="5.06"/><rect x="92.55" y="18.2" width="5.06" height="5.06"/><rect x="86.82" y="23.93" width="5.06" height="5.06"/><rect x="86.82" y="18.2" width="5.06" height="5.06"/><rect x="86.82" y="12.47" width="5.06" height="5.06"/><rect x="86.82" y="6.74" width="5.06" height="5.06"/><rect x="104.02" y="6.74" width="5.06" height="5.06"/><rect x="104.02" y="12.47" width="5.06" height="5.06"/><rect x="115.76" y="6.78" width="5.06" height="5.06"/><rect x="115.76" y="1.05" width="5.06" height="5.06"/><rect x="121.49" y="18.25" width="5.06" height="5.06"/><rect x="121.49" y="23.98" width="5.06" height="5.06"/><rect x="127.23" y="12.52" width="5.06" height="5.06"/><rect x="115.76" y="12.52" width="5.06" height="5.06"/><rect x="132.96" y="1.05" width="5.06" height="5.06"/><rect x="132.96" y="6.78" width="5.06" height="5.06"/><rect x="160.87" y="18.2" width="5.06" height="5.06"/><rect x="160.87" y="12.47" width="5.06" height="5.06"/><rect x="160.87" y="6.74" width="5.06" height="5.06"/><rect x="178.07" y="6.74" width="5.06" height="5.06"/><rect x="172.34" y="1.01" width="5.06" height="5.06"/><rect x="166.6" y="1.01" width="5.06" height="5.06"/><rect x="160.87" y="1.01" width="5.06" height="5.06"/><rect x="160.87" y="23.93" width="5.06" height="5.06"/><rect x="172.34" y="12.47" width="5.06" height="5.06"/><rect x="166.6" y="12.47" width="5.06" height="5.06"/><rect x="178.07" y="18.2" width="5.06" height="5.06"/><rect x="172.34" y="23.93" width="5.06" height="5.06"/><rect x="166.6" y="23.93" width="5.06" height="5.06"/><rect x="189.88" y="23.98" width="5.06" height="5.06"/><rect x="195.61" y="12.52" width="5.06" height="5.06"/><rect x="195.61" y="6.78" width="5.06" height="5.06"/><rect x="189.88" y="1.05" width="5.06" height="5.06"/><rect x="201.35" y="1.05" width="5.06" height="5.06"/><rect x="195.61" y="1.05" width="5.06" height="5.06"/><rect x="207.08" y="1.05" width="5.06" height="5.06"/><rect x="207.08" y="23.98" width="5.06" height="5.06"/><rect x="201.35" y="23.98" width="5.06" height="5.06"/><rect x="195.61" y="23.98" width="5.06" height="5.06"/><rect x="195.61" y="18.25" width="5.06" height="5.06"/><rect x="230.36" y="0.83" width="5.06" height="5.06"/><rect x="224.63" y="0.83" width="5.06" height="5.06"/><rect x="230.36" y="18.02" width="5.06" height="5.06"/><rect x="224.63" y="18.02" width="5.06" height="5.06"/><rect x="218.89" y="23.75" width="5.06" height="5.06"/><rect x="236.09" y="23.75" width="5.06" height="5.06"/><rect x="218.89" y="18.02" width="5.06" height="5.06"/><rect x="218.89" y="12.29" width="5.06" height="5.06"/><rect x="218.89" y="6.56" width="5.06" height="5.06"/><rect x="236.09" y="6.56" width="5.06" height="5.06"/><rect x="236.09" y="12.29" width="5.06" height="5.06"/><rect x="259.37" y="0.83" width="5.06" height="5.06"/><rect x="253.64" y="6.56" width="5.06" height="5.06"/><rect x="253.64" y="12.29" width="5.06" height="5.06"/><rect x="253.64" y="18.02" width="5.06" height="5.06"/><rect x="253.64" y="23.75" width="5.06" height="5.06"/><rect x="253.64" y="0.83" width="5.06" height="5.06"/><rect x="247.9" y="0.83" width="5.06" height="5.06"/><rect x="265.1" y="0.83" width="5.06" height="5.06"/><rect x="288.38" y="18.24" width="5.06" height="5.06"/><rect x="282.65" y="18.24" width="5.06" height="5.06"/><rect x="276.91" y="23.97" width="5.06" height="5.06"/><rect x="276.91" y="12.51" width="5.06" height="5.06"/><rect x="294.11" y="12.51" width="5.06" height="5.06"/><rect x="294.11" y="6.78" width="5.06" height="5.06"/><rect x="276.91" y="6.78" width="5.06" height="5.06"/><rect x="276.91" y="1.05" width="5.06" height="5.06"/><rect x="294.11" y="1.05" width="5.06" height="5.06"/><rect x="294.11" y="23.97" width="5.06" height="5.06"/><rect x="276.91" y="18.24" width="5.06" height="5.06"/><rect x="305.92" y="18.24" width="5.06" height="5.06"/><rect x="305.92" y="12.51" width="5.06" height="5.06"/><rect x="305.92" y="6.78" width="5.06" height="5.06"/><rect x="323.12" y="18.24" width="5.06" height="5.06"/><rect x="323.12" y="12.51" width="5.06" height="5.06"/><rect x="323.12" y="6.78" width="5.06" height="5.06"/><rect x="311.66" y="1.05" width="5.06" height="5.06"/><rect x="317.39" y="1.05" width="5.06" height="5.06"/><rect x="305.92" y="1.05" width="5.06" height="5.06"/><rect x="305.92" y="23.97" width="5.06" height="5.06"/><rect x="311.66" y="23.97" width="5.06" height="5.06"/><rect x="317.39" y="23.97" width="5.06" height="5.06"/><rect x="334.94" y="22.93" width="5.06" height="5.06"/><rect x="334.94" y="17.19" width="5.06" height="5.06"/><rect x="334.94" y="11.46" width="5.06" height="5.06"/><rect x="334.94" y="5.73" width="5.06" height="5.06"/><rect x="352.13" y="22.93" width="5.06" height="5.06"/><rect x="352.13" y="17.19" width="5.06" height="5.06"/><rect x="352.13" y="11.46" width="5.06" height="5.06"/><rect x="352.13" y="5.73" width="5.06" height="5.06"/><rect x="346.4" width="5.06" height="5.06"/><rect x="340.67" width="5.06" height="5.06"/><rect x="346.4" y="17.19" width="5.06" height="5.06"/><rect x="340.67" y="17.19" width="5.06" height="5.06"/><rect x="363.95" y="5.78" width="5.06" height="5.06"/><rect x="363.95" y="0.05" width="5.06" height="5.06"/><rect x="369.68" y="17.24" width="5.06" height="5.06"/><rect x="369.68" y="22.97" width="5.06" height="5.06"/><rect x="375.41" y="11.51" width="5.06" height="5.06"/><rect x="363.95" y="11.51" width="5.06" height="5.06"/><rect x="381.14" y="0.05" width="5.06" height="5.06"/><rect x="381.14" y="5.78" width="5.06" height="5.06"/><rect x="119.93" y="63.38" width="5.06" height="5.06"/><rect x="119.93" y="57.65" width="5.06" height="5.06"/><rect x="125.66" y="74.85" width="5.06" height="5.06"/><rect x="125.66" y="80.58" width="5.06" height="5.06"/><rect x="131.39" y="69.12" width="5.06" height="5.06"/><rect x="119.93" y="69.12" width="5.06" height="5.06"/><rect x="137.13" y="57.65" width="5.06" height="5.06"/><rect x="137.13" y="63.38" width="5.06" height="5.06"/><rect x="152.08" y="80.58" width="5.06" height="5.06"/><rect x="157.81" y="69.12" width="5.06" height="5.06"/><rect x="157.81" y="63.38" width="5.06" height="5.06"/><rect x="152.08" y="57.65" width="5.06" height="5.06"/><rect x="163.54" y="57.65" width="5.06" height="5.06"/><rect x="157.81" y="57.65" width="5.06" height="5.06"/><rect x="169.27" y="57.65" width="5.06" height="5.06"/><rect x="169.27" y="80.58" width="5.06" height="5.06"/><rect x="163.54" y="80.58" width="5.06" height="5.06"/><rect x="157.81" y="80.58" width="5.06" height="5.06"/><rect x="157.81" y="74.85" width="5.06" height="5.06"/><rect x="195.68" y="57.34" width="5.06" height="5.06"/><rect x="189.95" y="57.34" width="5.06" height="5.06"/><rect x="195.68" y="74.54" width="5.06" height="5.06"/><rect x="189.95" y="74.54" width="5.06" height="5.06"/><rect x="184.22" y="80.27" width="5.06" height="5.06"/><rect x="201.41" y="80.27" width="5.06" height="5.06"/><rect x="184.22" y="74.54" width="5.06" height="5.06"/><rect x="184.22" y="68.8" width="5.06" height="5.06"/><rect x="184.22" y="63.07" width="5.06" height="5.06"/><rect x="201.41" y="63.07" width="5.06" height="5.06"/><rect x="201.41" y="68.8" width="5.06" height="5.06"/><rect x="213.43" y="80.27" width="5.06" height="5.06"/><rect x="213.43" y="74.54" width="5.06" height="5.06"/><rect x="213.43" y="68.8" width="5.06" height="5.06"/><rect x="213.43" y="63.07" width="5.06" height="5.06"/><rect x="230.62" y="80.27" width="5.06" height="5.06"/><rect x="230.62" y="74.54" width="5.06" height="5.06"/><rect x="230.62" y="68.8" width="5.06" height="5.06"/><rect x="230.62" y="63.07" width="5.06" height="5.06"/><rect x="224.89" y="57.34" width="5.06" height="5.06"/><rect x="219.16" y="57.34" width="5.06" height="5.06"/><rect x="224.89" y="74.54" width="5.06" height="5.06"/><rect x="219.16" y="74.54" width="5.06" height="5.06"/><rect x="248.37" y="63.07" width="5.06" height="5.06"/><rect x="242.64" y="80.27" width="5.06" height="5.06"/><rect x="242.64" y="68.8" width="5.06" height="5.06"/><rect x="254.1" y="68.8" width="5.06" height="5.06"/><rect x="242.64" y="63.07" width="5.06" height="5.06"/><rect x="242.64" y="57.34" width="5.06" height="5.06"/><rect x="242.64" y="74.54" width="5.06" height="5.06"/><rect x="259.84" y="80.27" width="5.06" height="5.06"/><rect x="259.84" y="68.8" width="5.06" height="5.06"/><rect x="259.84" y="63.07" width="5.06" height="5.06"/><rect x="259.84" y="57.34" width="5.06" height="5.06"/><rect x="259.84" y="74.54" width="5.06" height="5.06"/></g></g></svg>