<?xml version="1.0" encoding="UTF-8"?>
<svg width="287px" height="334px" viewBox="0 0 287 334" version="1.1" xmlns="http://www.w3.org/2000/svg" xmlns:xlink="http://www.w3.org/1999/xlink">
    <!-- Generator: Sketch 48.2 (47327) - http://www.bohemiancoding.com/sketch -->
    <title>Group</title>
    <desc>Created with Sketch.</desc>
    <defs></defs>
    <g id="wardrober_thumbnail" stroke="none" stroke-width="1" fill="none" fill-rule="evenodd" transform="translate(-1367.000000, -1279.000000)">
        <g id="Group" transform="translate(1351.000000, 1279.000000)">
            <g id="bow-tie-(1)" transform="translate(16.000000, 0.000000)" fill="#000000" fill-rule="nonzero">
                <path d="M256.456173,4.25445842 C250.390454,-0.0874895915 242.880406,-1.16632426 235.851801,1.29619541 L155.672048,29.3765554 C151.899788,26.5629083 147.236458,24.8951977 142.192225,24.8951977 L123.807775,24.8951977 C118.763542,24.8951977 114.100212,26.5629083 110.328527,29.3765554 L30.1487732,1.29619541 C23.119594,-1.1657458 15.6089719,-0.0874895915 9.54440173,4.25445842 C3.47868251,8.59640643 0,15.3840987 0,22.8769381 L0,91.1234988 C0,98.6163382 3.47868251,105.40403 9.54382721,109.745978 C13.4706307,112.557312 18.0035464,114 22.6191922,114 C25.1326911,114 27.6703197,113.571937 30.1481987,112.704241 L110.327952,84.6238814 C114.100212,87.4375285 118.763542,89.1046607 123.807775,89.1046607 L142.192225,89.1046607 C147.236458,89.1046607 151.899788,87.4369501 155.671473,84.623303 L235.851227,112.703663 C238.32968,113.571358 240.866734,113.999422 243.380233,113.999422 C247.995305,113.999422 252.528795,112.556155 256.455598,109.7454 C262.521317,105.40403 266,98.6163382 266,91.1234988 L266,22.8769381 C266,15.3840987 262.521317,8.59640643 256.456173,4.25445842 Z M27.317568,104.509147 C22.9581555,106.036291 18.2999957,105.367009 14.5375032,102.674261 C10.7755853,99.9809339 8.61771058,95.7708756 8.61771058,91.1234988 L8.61771058,22.8769381 C8.61771058,18.2295613 10.7755853,14.019503 14.5375032,11.3261763 C18.2994212,8.63342811 22.9581555,7.96472415 27.317568,9.49128967 L104.127222,36.3910054 C102.715641,38.8622021 101.749309,41.6208951 101.340255,44.5583334 L60.5078186,34.2801916 C58.2017192,33.6988357 55.86,35.1120223 55.2826134,37.4368677 C54.7052268,39.7611345 56.1087646,42.1166385 58.4177365,42.6979944 L101.114471,53.4458487 L101.114471,60.5545882 L58.417162,71.3024425 C56.1081901,71.88322 54.7046523,74.2393023 55.2820389,76.5635692 C55.7715248,78.5349733 57.5283888,79.850978 59.4587559,79.850978 C59.8046134,79.850978 60.156216,79.8087502 60.5072441,79.7202452 L101.33968,69.4421034 C101.748734,72.3801202 102.715067,75.1382348 104.126648,77.6094314 L27.317568,104.509147 Z M123.807775,80.4277063 C116.046665,80.4277063 109.732181,74.0698125 109.732181,66.2553473 L109.732181,47.7445111 C109.732181,39.9300459 116.046665,33.5721522 123.807775,33.5721522 L142.192225,33.5721522 C149.953335,33.5721522 156.267819,39.9300459 156.267819,47.7445111 L156.267819,66.2553473 C156.267819,74.0698125 149.953335,80.4277063 142.192225,80.4277063 L123.807775,80.4277063 Z M257.382289,91.1234988 C257.382289,95.7708756 255.224415,99.9809339 251.462497,102.674261 C247.700004,105.367009 243.042419,106.035713 238.682432,104.509147 L161.872778,77.6094314 C163.284359,75.1382348 164.250691,72.3795418 164.659745,69.4421034 L205.492181,79.7202452 C205.842635,79.8087502 206.194238,79.850978 206.54067,79.850978 C208.471037,79.850978 210.227901,78.5349733 210.717387,76.5635692 C211.294773,74.2393023 209.891235,71.8837984 207.582263,71.3024425 L164.885529,60.5545882 L164.885529,53.4458487 L207.582838,42.6979944 C209.89181,42.1172169 211.295348,39.7611345 210.717961,37.4368677 C210.140575,35.1120223 207.79943,33.6976788 205.492756,34.2801916 L164.66032,44.5583334 C164.251266,41.6203167 163.284933,38.8622021 161.873352,36.3910054 L238.683006,9.49128967 C243.042994,7.96472415 247.701153,8.63400657 251.463071,11.3261763 C255.224989,14.019503 257.382864,18.2295613 257.382864,22.8769381 L257.382864,91.1234988 L257.382289,91.1234988 Z" id="Shape"></path>
            </g>
            <path d="M168.5,84 L199.228754,113.479618 C218.886611,132.338375 230,158.400573 230,185.641793 L230,208.512694 C230,230.858457 237.484406,252.560373 251.258996,270.155651 L298.5,330.5" id="Path-24" stroke="#000000" stroke-width="10"></path>
        </g>
    </g>
</svg>